<svg width="15" height="20" viewBox="0 0 15 20" fill="none" xmlns="http://www.w3.org/2000/svg">
<path d="M7.765 15.5587C7.60286 15.4574 7.39714 15.4574 7.235 15.5587L1.01 19.4493C0.907242 19.5136 0.777727 19.517 0.671744 19.4582C0.56576 19.3995 0.5 19.2878 0.5 19.1667V2.5C0.5 1.96957 0.710714 1.46086 1.08579 1.08579C1.46086 0.710714 1.96957 0.5 2.5 0.5H12.5C13.0304 0.5 13.5391 0.710714 13.9142 1.08579C14.2893 1.46086 14.5 1.96957 14.5 2.5V19.1667C14.5 19.2878 14.4342 19.3995 14.3283 19.4582C14.2223 19.517 14.0928 19.5136 13.99 19.4493L7.765 15.5587Z" fill="#515358" stroke="#515358" stroke-linejoin="round"/>
</svg>
