<svg width="24" height="24" viewBox="0 0 24 24" fill="none" xmlns="http://www.w3.org/2000/svg">
<path d="M12.015 17.9051C11.8529 17.8038 11.6471 17.8038 11.485 17.9051L5.26 21.7957C5.15724 21.86 5.02773 21.8634 4.92174 21.8046C4.81576 21.7459 4.75 21.6342 4.75 21.5131V4.84641C4.75 4.31597 4.96071 3.80726 5.33579 3.43219C5.71086 3.05712 6.21957 2.84641 6.75 2.84641H16.75C17.2804 2.84641 17.7891 3.05712 18.1642 3.43219C18.5393 3.80726 18.75 4.31597 18.75 4.84641V21.5131C18.75 21.6342 18.6842 21.7459 18.5783 21.8046C18.4723 21.8634 18.3428 21.86 18.24 21.7957L12.015 17.9051Z" stroke="#515358" stroke-linejoin="round"/>
</svg>
