<svg width="20" height="20" viewBox="0 0 20 20" fill="none" xmlns="http://www.w3.org/2000/svg">
<path d="M10 19.5C4.75986 19.5 0.5 15.2401 0.5 10C0.5 4.75986 4.75986 0.5 10 0.5C15.2401 0.5 19.5 4.75986 19.5 10C19.5 15.2401 15.2401 19.5 10 19.5Z" fill="#515358" stroke="#515358"/>
<path d="M10.1116 10.9232H10.1115H10.1114H10.1113H10.1112H10.1111H10.111H10.1109H10.1108H10.1106H10.1105H10.1104H10.1103H10.1102H10.1101H10.11H10.1099H10.1097H10.1096H10.1095H10.1094H10.1093H10.1092H10.1091H10.109H10.1088H10.1087H10.1086H10.1085H10.1084H10.1083H10.1082H10.108H10.1079H10.1078H10.1077H10.1076H10.1075H10.1073H10.1072H10.1071H10.107H10.1069H10.1068H10.1066H10.1065H10.1064H10.1063H10.1062H10.106H10.1059H10.1058H10.1057H10.1056H10.1055H10.1053H10.1052H10.1051H10.105H10.1049H10.1047H10.1046H10.1045H10.1044H10.1043H10.1041H10.104H10.1039H10.1038H10.1036H10.1035H10.1034H10.1033H10.1032H10.103H10.1029H10.1028H10.1027H10.1025H10.1024H10.1023H10.1022H10.1021H10.1019H10.1018H10.1017H10.1016H10.1014H10.1013H10.1012H10.1011H10.1009H10.1008H10.1007H10.1006H10.1004H10.1003H10.1002H10.1001H10.0999H10.0998H10.0997H10.0996H10.0994H10.0993H10.0992H10.099H10.0989H10.0988H10.0987H10.0985H10.0984H10.0983H10.0982H10.098H10.0979H10.0978H10.0976H10.0975H10.0974H10.0973H10.0971H10.097H10.0969H10.0967H10.0966H10.0965H10.0964H10.0962H10.0961H10.096H10.0958H10.0957H10.0956H10.0954H10.0953H10.0952H10.0951H10.0949H10.0948H10.0947H10.0945H10.0944H10.0943H10.0941H10.094H10.0939H10.0937H10.0936H10.0935H10.0934H10.0932H10.0931H10.093H10.0928H10.0927H10.0926H10.0924H10.0923H10.0922H10.092H10.0919H10.0918H10.0916H10.0915H10.0914H10.0912H10.0911H10.091H10.0908H10.0907H10.0906H10.0904H10.0903H10.0902H10.09H10.0899H10.0898H10.0896H10.0895H10.0894H10.0892H10.0891H10.089H10.0888H10.0887H10.0886H10.0884H10.0883H10.0882H10.088H10.0879H10.0878H10.0876H10.0875H10.0874H10.0872H10.0871H10.0869H10.0868H10.0867H10.0865H10.0864H10.0863H10.0861H10.086H10.0859H10.0857H10.0856H10.0855H10.0853H10.0852H10.0851H10.0849H10.0848H10.0846H10.0845H10.0844H10.0842H10.0841H10.084H10.0838H10.0837H10.0836H10.0834H10.0833H10.0832H10.083H10.0829H10.0827H10.0826H10.0825H10.0823H10.0822H10.0821H10.0819H10.0818H10.0817H10.0815H10.0814H10.0813H10.0811H10.081H10.0808H10.0807H10.0806H10.0804H10.0803H10.0802H10.08H10.0799H10.0798H10.0796H10.0795H10.0793H10.0792H10.0791H10.0789H10.0788H10.0787H10.0785H10.0784H10.0783H10.0781H10.078H10.0778H10.0777H10.0776H10.0774H10.0773H10.0772H10.077H10.0769H10.0768H10.0766H10.0765H10.0763H10.0762H10.0761H10.0759H10.0758H10.0757H10.0755H10.0754H10.0753H10.0751H10.075H10.0749H10.0747H10.0746H10.0744H10.0743H10.0742H10.074H10.0739H10.0738H10.0736H10.0735H10.0734H10.0732H10.0731H10.073H10.0728H10.0727H10.0725H10.0724H10.0723H10.0721H10.072H10.0719H10.0717H10.0716H10.0715H10.0713H10.0712H10.0711H10.0709H10.0708H10.0707H10.0705H10.0704H10.0703H10.0701H10.07H10.0698H10.0697H10.0696H10.0694H10.0693H10.0692H10.069H10.0689H10.0688H10.0686H10.0685H10.0684H10.0682H10.0681H10.068H10.0678H10.0677H10.0676H10.0674H10.0673H10.0672H10.067H10.0669H10.0668H10.0666H10.0665H10.0664H10.0662H10.0661H10.066H10.0658H10.0657H10.0656H10.0655H10.0653H10.0652H10.0651H10.0649H10.0648H10.0647H10.0645H10.0644H10.0643H10.0641H10.064H10.0639H10.0637H10.0636H10.0635H10.0634H10.0632H10.0631H10.063H10.0628H10.0627H10.0626H10.0624H10.0623H10.0622H10.0621H10.0619H10.0618H10.0617H10.0615H10.0614H10.0613H10.0611H10.061H10.0609H10.0608H10.0606H10.0605H10.0604H10.0602H10.0601H10.06H10.0599H10.0597H10.0596H10.0595H10.0594H10.0592H10.0591H10.059H10.0588H10.0587H10.0586H10.0585H10.0583H10.0582H10.0581H10.058H10.0578H10.0577H10.0576H10.0575H10.0573H10.0572H10.0571H10.057H10.0568H10.0567H10.0566H10.0565H10.0563H10.0562H10.0561H10.056H10.0558H10.0557H10.0556H10.0555H10.0554H10.0552H10.0551H10.055H10.0549H10.0547H10.0546H10.0545H10.0544H10.0543H10.0541H10.054H10.0539H10.0538H10.0536H10.0535H10.0534H10.0533H10.0532H10.053H10.0529H10.0528H10.0527H10.0526H10.0525H10.0523H10.0522H10.0521H10.052H10.0519H10.0517H10.0516H10.0515H10.0514H10.0513H10.0512H10.051H10.0509H10.0508H10.0507H10.0506H10.0505H10.0503H10.0502H10.0501H10.05H10.0499H10.0498H10.0496H10.0495H10.0494H10.0493H10.0492H10.0491H10.049H10.0488H10.0487H10.0486H10.0485H10.0484H10.0483H10.0482H10.0481H10.0479H10.0478H10.0477H10.0476H10.0475H10.0474H10.0473H10.0472H10.0471H10.047H10.0468H10.0467H10.0466H10.0465H10.0464H10.0462H10.046H10.0459H10.0457H10.0455H10.0454H10.0452H10.045H10.0449H10.0447H10.0445H10.0444H10.0442H10.044H10.0439H10.0437H10.0435H10.0434H10.0432H10.043H10.0429H10.0427H10.0425H10.0424H10.0422H10.042H10.0419H10.0417H10.0415H10.0413H10.0412H10.041H10.0408H10.0407H10.0405H10.0403H10.0402H10.04H10.0398H10.0396H10.0395H10.0393H10.0391H10.039H10.0388H10.0386H10.0384H10.0383H10.0381H10.0379H10.0377H10.0376H10.0374H10.0372H10.037H10.0369H10.0367H10.0365H10.0364H10.0362H10.036H10.0358H10.0356H10.0355H10.0353H10.0351H10.0349H10.0348H10.0346H10.0344H10.0342H10.0341H10.0339H10.0337H10.0335H10.0334H10.0332H10.033H10.0328H10.0326H10.0325H10.0323H10.0321H10.0319H10.0318H10.0316H10.0314H10.0312H10.031H10.0309H10.0307H10.0305H10.0303H10.0301H10.03H10.0298H10.0296H10.0294H10.0292H10.0291H10.0289H10.0287H10.0285H10.0283H10.0282H10.028H10.0278H10.0276H10.0274H10.0272H10.0271H10.0269H10.0267H10.0265H10.0263H10.0261H10.026H10.0258H10.0256H10.0254H10.0252H10.025H10.0249H10.0247H10.0245H10.0243H10.0241H10.0239H10.0238H10.0236H10.0234H10.0232H10.023H10.0228H10.0227H10.0225H10.0223H10.0221H10.0219H10.0217H10.0215H10.0214H10.0212H10.021H10.0208H10.0206H10.0204H10.0202H10.0201H10.0199H10.0197H10.0195H10.0193H10.0191H10.0189H10.0188H10.0186H10.0184H10.0182H10.018H10.0178H10.0176H10.0174H10.0173H10.0171H10.0169H10.0167H10.0165H10.0163H10.0161H10.0159H10.0158H10.0156H10.0154H10.0152H10.015H10.0148H10.0146H10.0144H10.0143H10.0141H10.0139H10.0137H10.0135H10.0133H10.0131H10.0129H10.0127H10.0126H10.0124H10.0122H10.012H10.0118H10.0116H10.0114H10.0112H10.011H10.0109H10.0107H10.0105H10.0103H10.0101H10.0099H10.0097H10.0095H10.0093H10.0091H10.009H10.0088H10.0086H10.0084H10.0082H10.008H10.0078H10.0076H10.0074H10.0072H10.0071H10.0069H10.0067H10.0065H10.0063H10.0061H10.0059H10.0057H10.0055H10.0053H10.0052H10.005H10.0048H10.0046H10.0044H10.0042H10.004H10.0038H10.0036H10.0034H10.0032H10.0031H10.0029H10.0027H10.0025H10.0023H10.0021H10.0019H10.0017H10.0015H10.0013H10.0011H10.001H10.0008H10.0006H10.0004H10.0002H10H9.99981H9.99962H9.99943H9.99924H9.99905H9.99886H9.99867H9.99848H9.99829H9.9981H9.9979H9.99771H9.99752H9.99733H9.99714H9.99695H9.99676H9.99657H9.99638H9.99619H9.996H9.99581H9.99562H9.99543H9.99524H9.99504H9.99485H9.99466H9.99447H9.99428H9.99409H9.9939H9.99371H9.99352H9.99333H9.99314H9.99295H9.99276H9.99257H9.99238H9.99219H9.992H9.99181H9.99162H9.99143H9.99124H9.99105H9.99086H9.99067H9.99048H9.99029H9.9901H9.98991H9.98972H9.98953H9.98934H9.98915H9.98896H9.98878H9.98859H9.9884H9.98821H9.98802H9.98783H9.98764H9.98745H9.98726H9.98707H9.98688H9.9867H9.98651H9.98632H9.98613H9.98594H9.98575H9.98556H9.98538H9.98519H9.985H9.98481H9.98462H9.98444H9.98425H9.98406H9.98387H9.98368H9.9835H9.98331H9.98312H9.98293H9.98275H9.98256H9.98237H9.98219H9.982H9.98181H9.98162H9.98144H9.98125H9.98106H9.98088H9.98069H9.9805H9.98032H9.98013H9.97995H9.97976H9.97957H9.97939H9.9792H9.97902H9.97883H9.97865H9.97846H9.97827H9.97809H9.9779H9.97772H9.97753H9.97735H9.97716H9.97698H9.9768H9.97661H9.97643H9.97624H9.97606H9.97587H9.97569H9.97551H9.97532H9.97514H9.97496H9.97477H9.97459H9.97441H9.97422H9.97404H9.97386H9.97367H9.97349H9.97331H9.97313H9.97295H9.97276H9.97258H9.9724H9.97222H9.97204H9.97185H9.97167H9.97149H9.97131H9.97113H9.97095H9.97077H9.97059H9.97041H9.97023H9.97005H9.96987H9.96969H9.96951H9.96933H9.96915H9.96897H9.96879H9.96861H9.96843H9.96825H9.96807H9.9679H9.96772H9.96754H9.96736H9.96718H9.967H9.96683H9.96665H9.96647H9.96629H9.96612H9.96594H9.96576H9.96559H9.96541H9.96523H9.96506H9.96488H9.96471H9.96453H9.96436H9.96418H9.964H9.96383H9.96365H9.96348H9.96331H9.96313H9.96296H9.96278H9.96261H9.96244H9.96226H9.96209H9.96192H9.96174H9.96157H9.96145C8.11902 10.8627 6.76047 9.43454 6.76047 7.68371C6.76047 5.89474 8.22033 4.43488 10.0093 4.43488C11.7979 4.43488 13.2575 5.89412 13.2581 7.68258C13.2495 9.44948 11.8751 10.8629 10.1312 10.9232H10.1311H10.1311H10.131H10.1309H10.1309H10.1308H10.1307H10.1306H10.1306H10.1305H10.1304H10.1303H10.1303H10.1302H10.1301H10.1301H10.13H10.1299H10.1298H10.1298H10.1297H10.1296H10.1296H10.1295H10.1294H10.1294H10.1293H10.1292H10.1292H10.1291H10.129H10.129H10.1289H10.1288H10.1288H10.1287H10.1286H10.1286H10.1285H10.1284H10.1284H10.1283H10.1283H10.1282H10.1281H10.1281H10.128H10.1279H10.1279H10.1278H10.1278H10.1277H10.1276H10.1276H10.1275H10.1275H10.1274H10.1273H10.1273H10.1272H10.1272H10.1271H10.127H10.127H10.1269H10.1269H10.1268H10.1268H10.1267H10.1266H10.1266H10.1265H10.1265H10.1264H10.1264H10.1263H10.1262H10.1262H10.1261H10.1261H10.126H10.126H10.1259H10.1259H10.1258H10.1258H10.1257H10.1257H10.1256H10.1255H10.1255H10.1254H10.1254H10.1253H10.1253H10.1252H10.1252H10.1251H10.1251H10.125H10.125H10.1249H10.1249H10.1248H10.1248H10.1247H10.1247H10.1246H10.1246H10.1245H10.1245H10.1244H10.1244H10.1243H10.1243H10.1243H10.1242H10.1242H10.1241H10.1241H10.124H10.124H10.1239H10.1239H10.1238H10.1238H10.1237H10.1237H10.1236H10.1236H10.1236H10.1235H10.1235H10.1234H10.1234H10.1233H10.1233H10.1232H10.1232H10.1232H10.1231H10.1231H10.123H10.123H10.1229H10.1229H10.1228H10.1228H10.1228H10.1227H10.1227H10.1226H10.1226H10.1226H10.1225H10.1225H10.1224H10.1224H10.1223H10.1223H10.1223H10.1222H10.1222H10.1221H10.1221H10.1221H10.122H10.122H10.1219H10.1219H10.1219H10.1218H10.1218H10.1217H10.1217H10.1217H10.1216H10.1216H10.1215H10.1215H10.1215H10.1214H10.1214H10.1213H10.1213H10.1213H10.1212H10.1212H10.1211H10.1211H10.1211H10.121H10.121H10.1209H10.1209H10.1209H10.1208H10.1208H10.1208H10.1207H10.1207H10.1206H10.1206H10.1206H10.1205H10.1205H10.1205H10.1204H10.1204H10.1203H10.1203H10.1203H10.1202H10.1202H10.1202H10.1201H10.1201H10.12H10.12H10.12H10.1199H10.1199H10.1199H10.1198H10.1198H10.1198H10.1197H10.1197H10.1196H10.1196H10.1196H10.1195H10.1195H10.1195H10.1194H10.1194H10.1194H10.1193H10.1193H10.1192H10.1192H10.1192H10.1191H10.1191H10.1191H10.119H10.119H10.119H10.1189H10.1189H10.1188H10.1188H10.1188H10.1187H10.1187H10.1187H10.1186H10.1186H10.1186H10.1185H10.1185H10.1184H10.1184H10.1184H10.1183H10.1183H10.1183H10.1182H10.1182H10.1181H10.1181H10.1181H10.118H10.118H10.118H10.1179H10.1179H10.1179H10.1178H10.1178H10.1177H10.1177H10.1177H10.1176H10.1176H10.1176H10.1175H10.1175H10.1174H10.1174H10.1174H10.1173H10.1173H10.1173H10.1172H10.1172H10.1171H10.1171H10.1171H10.117H10.117H10.117H10.1169H10.1169H10.1168H10.1168H10.1168H10.1167H10.1167H10.1167H10.1166H10.1166H10.1165H10.1165H10.1165H10.1164H10.1164H10.1163H10.1163H10.1163H10.1162H10.1162H10.1161H10.1161H10.1161H10.116H10.116H10.1159H10.1159H10.1159H10.1158H10.1158H10.1157H10.1157H10.1157H10.1156H10.1156H10.1155H10.1155H10.1155H10.1154H10.1154H10.1153H10.1153H10.1152H10.1152H10.1152H10.1151H10.1151H10.115H10.115H10.115H10.1149H10.1149H10.1148H10.1148H10.1147H10.1147H10.1147H10.1146H10.1146H10.1145H10.1145H10.1144H10.1144H10.1143H10.1143H10.1143H10.1142H10.1142H10.1141H10.1141H10.114H10.114H10.1139H10.1139H10.1138H10.1138H10.1137H10.1137H10.1137H10.1136H10.1136H10.1135H10.1135H10.1134H10.1134H10.1133H10.1133H10.1132H10.1132H10.1131H10.1131H10.113H10.113H10.1129H10.1129H10.1128H10.1128H10.1127H10.1127H10.1126H10.1126H10.1125H10.1125H10.1124H10.1124H10.1123H10.1123H10.1122H10.1122H10.1121H10.1121H10.112H10.112H10.1119H10.1118H10.1118H10.1117H10.1117H10.1116Z" stroke="white"/>
<path d="M3.59324 17.0077L3.59328 17.0077L3.58798 17.003C3.55355 16.9724 3.52509 16.9128 3.53033 16.8382C3.63379 15.9124 4.2156 15.0029 5.26308 14.3045C6.55058 13.4492 8.26507 13.0069 10.0035 13.0069C11.7416 13.0069 13.4531 13.449 14.7355 14.3036C15.7887 15.0146 16.3692 15.9186 16.4704 16.8449L16.4703 16.8449L16.4713 16.8526C16.4782 16.9077 16.4601 16.9602 16.412 17.003L16.412 17.0029L16.4067 17.0077C14.6474 18.6167 12.377 19.4999 9.99999 19.4999C7.62298 19.4999 5.35255 18.6167 3.59324 17.0077Z" fill="white" stroke="#515358"/>
</svg>
