<svg width="23" height="24" viewBox="0 0 23 24" fill="none" xmlns="http://www.w3.org/2000/svg">
<path d="M11.6116 13.2697H11.6115H11.6114H11.6113H11.6112H11.6111H11.611H11.6109H11.6108H11.6106H11.6105H11.6104H11.6103H11.6102H11.6101H11.61H11.6099H11.6097H11.6096H11.6095H11.6094H11.6093H11.6092H11.6091H11.609H11.6088H11.6087H11.6086H11.6085H11.6084H11.6083H11.6082H11.608H11.6079H11.6078H11.6077H11.6076H11.6075H11.6073H11.6072H11.6071H11.607H11.6069H11.6068H11.6066H11.6065H11.6064H11.6063H11.6062H11.606H11.6059H11.6058H11.6057H11.6056H11.6055H11.6053H11.6052H11.6051H11.605H11.6049H11.6047H11.6046H11.6045H11.6044H11.6043H11.6041H11.604H11.6039H11.6038H11.6036H11.6035H11.6034H11.6033H11.6032H11.603H11.6029H11.6028H11.6027H11.6025H11.6024H11.6023H11.6022H11.6021H11.6019H11.6018H11.6017H11.6016H11.6014H11.6013H11.6012H11.6011H11.6009H11.6008H11.6007H11.6006H11.6004H11.6003H11.6002H11.6001H11.5999H11.5998H11.5997H11.5996H11.5994H11.5993H11.5992H11.599H11.5989H11.5988H11.5987H11.5985H11.5984H11.5983H11.5982H11.598H11.5979H11.5978H11.5976H11.5975H11.5974H11.5973H11.5971H11.597H11.5969H11.5967H11.5966H11.5965H11.5964H11.5962H11.5961H11.596H11.5958H11.5957H11.5956H11.5954H11.5953H11.5952H11.5951H11.5949H11.5948H11.5947H11.5945H11.5944H11.5943H11.5941H11.594H11.5939H11.5937H11.5936H11.5935H11.5934H11.5932H11.5931H11.593H11.5928H11.5927H11.5926H11.5924H11.5923H11.5922H11.592H11.5919H11.5918H11.5916H11.5915H11.5914H11.5912H11.5911H11.591H11.5908H11.5907H11.5906H11.5904H11.5903H11.5902H11.59H11.5899H11.5898H11.5896H11.5895H11.5894H11.5892H11.5891H11.589H11.5888H11.5887H11.5886H11.5884H11.5883H11.5882H11.588H11.5879H11.5878H11.5876H11.5875H11.5874H11.5872H11.5871H11.5869H11.5868H11.5867H11.5865H11.5864H11.5863H11.5861H11.586H11.5859H11.5857H11.5856H11.5855H11.5853H11.5852H11.5851H11.5849H11.5848H11.5846H11.5845H11.5844H11.5842H11.5841H11.584H11.5838H11.5837H11.5836H11.5834H11.5833H11.5832H11.583H11.5829H11.5827H11.5826H11.5825H11.5823H11.5822H11.5821H11.5819H11.5818H11.5817H11.5815H11.5814H11.5813H11.5811H11.581H11.5808H11.5807H11.5806H11.5804H11.5803H11.5802H11.58H11.5799H11.5798H11.5796H11.5795H11.5793H11.5792H11.5791H11.5789H11.5788H11.5787H11.5785H11.5784H11.5783H11.5781H11.578H11.5778H11.5777H11.5776H11.5774H11.5773H11.5772H11.577H11.5769H11.5768H11.5766H11.5765H11.5763H11.5762H11.5761H11.5759H11.5758H11.5757H11.5755H11.5754H11.5753H11.5751H11.575H11.5749H11.5747H11.5746H11.5744H11.5743H11.5742H11.574H11.5739H11.5738H11.5736H11.5735H11.5734H11.5732H11.5731H11.573H11.5728H11.5727H11.5725H11.5724H11.5723H11.5721H11.572H11.5719H11.5717H11.5716H11.5715H11.5713H11.5712H11.5711H11.5709H11.5708H11.5707H11.5705H11.5704H11.5703H11.5701H11.57H11.5698H11.5697H11.5696H11.5694H11.5693H11.5692H11.569H11.5689H11.5688H11.5686H11.5685H11.5684H11.5682H11.5681H11.568H11.5678H11.5677H11.5676H11.5674H11.5673H11.5672H11.567H11.5669H11.5668H11.5666H11.5665H11.5664H11.5662H11.5661H11.566H11.5658H11.5657H11.5656H11.5655H11.5653H11.5652H11.5651H11.5649H11.5648H11.5647H11.5645H11.5644H11.5643H11.5641H11.564H11.5639H11.5637H11.5636H11.5635H11.5634H11.5632H11.5631H11.563H11.5628H11.5627H11.5626H11.5624H11.5623H11.5622H11.5621H11.5619H11.5618H11.5617H11.5615H11.5614H11.5613H11.5611H11.561H11.5609H11.5608H11.5606H11.5605H11.5604H11.5602H11.5601H11.56H11.5599H11.5597H11.5596H11.5595H11.5594H11.5592H11.5591H11.559H11.5588H11.5587H11.5586H11.5585H11.5583H11.5582H11.5581H11.558H11.5578H11.5577H11.5576H11.5575H11.5573H11.5572H11.5571H11.557H11.5568H11.5567H11.5566H11.5565H11.5563H11.5562H11.5561H11.556H11.5558H11.5557H11.5556H11.5555H11.5554H11.5552H11.5551H11.555H11.5549H11.5547H11.5546H11.5545H11.5544H11.5543H11.5541H11.554H11.5539H11.5538H11.5536H11.5535H11.5534H11.5533H11.5532H11.553H11.5529H11.5528H11.5527H11.5526H11.5525H11.5523H11.5522H11.5521H11.552H11.5519H11.5517H11.5516H11.5515H11.5514H11.5513H11.5512H11.551H11.5509H11.5508H11.5507H11.5506H11.5505H11.5503H11.5502H11.5501H11.55H11.5499H11.5498H11.5496H11.5495H11.5494H11.5493H11.5492H11.5491H11.549H11.5488H11.5487H11.5486H11.5485H11.5484H11.5483H11.5482H11.5481H11.5479H11.5478H11.5477H11.5476H11.5475H11.5474H11.5473H11.5472H11.5471H11.547H11.5468H11.5467H11.5466H11.5465H11.5464H11.5462H11.546H11.5459H11.5457H11.5455H11.5454H11.5452H11.545H11.5449H11.5447H11.5445H11.5444H11.5442H11.544H11.5439H11.5437H11.5435H11.5434H11.5432H11.543H11.5429H11.5427H11.5425H11.5424H11.5422H11.542H11.5419H11.5417H11.5415H11.5413H11.5412H11.541H11.5408H11.5407H11.5405H11.5403H11.5402H11.54H11.5398H11.5396H11.5395H11.5393H11.5391H11.539H11.5388H11.5386H11.5384H11.5383H11.5381H11.5379H11.5377H11.5376H11.5374H11.5372H11.537H11.5369H11.5367H11.5365H11.5364H11.5362H11.536H11.5358H11.5356H11.5355H11.5353H11.5351H11.5349H11.5348H11.5346H11.5344H11.5342H11.5341H11.5339H11.5337H11.5335H11.5334H11.5332H11.533H11.5328H11.5326H11.5325H11.5323H11.5321H11.5319H11.5318H11.5316H11.5314H11.5312H11.531H11.5309H11.5307H11.5305H11.5303H11.5301H11.53H11.5298H11.5296H11.5294H11.5292H11.5291H11.5289H11.5287H11.5285H11.5283H11.5282H11.528H11.5278H11.5276H11.5274H11.5272H11.5271H11.5269H11.5267H11.5265H11.5263H11.5261H11.526H11.5258H11.5256H11.5254H11.5252H11.525H11.5249H11.5247H11.5245H11.5243H11.5241H11.5239H11.5238H11.5236H11.5234H11.5232H11.523H11.5228H11.5227H11.5225H11.5223H11.5221H11.5219H11.5217H11.5215H11.5214H11.5212H11.521H11.5208H11.5206H11.5204H11.5202H11.5201H11.5199H11.5197H11.5195H11.5193H11.5191H11.5189H11.5188H11.5186H11.5184H11.5182H11.518H11.5178H11.5176H11.5174H11.5173H11.5171H11.5169H11.5167H11.5165H11.5163H11.5161H11.5159H11.5158H11.5156H11.5154H11.5152H11.515H11.5148H11.5146H11.5144H11.5143H11.5141H11.5139H11.5137H11.5135H11.5133H11.5131H11.5129H11.5127H11.5126H11.5124H11.5122H11.512H11.5118H11.5116H11.5114H11.5112H11.511H11.5109H11.5107H11.5105H11.5103H11.5101H11.5099H11.5097H11.5095H11.5093H11.5091H11.509H11.5088H11.5086H11.5084H11.5082H11.508H11.5078H11.5076H11.5074H11.5072H11.5071H11.5069H11.5067H11.5065H11.5063H11.5061H11.5059H11.5057H11.5055H11.5053H11.5052H11.505H11.5048H11.5046H11.5044H11.5042H11.504H11.5038H11.5036H11.5034H11.5032H11.5031H11.5029H11.5027H11.5025H11.5023H11.5021H11.5019H11.5017H11.5015H11.5013H11.5011H11.501H11.5008H11.5006H11.5004H11.5002H11.5H11.4998H11.4996H11.4994H11.4992H11.499H11.4989H11.4987H11.4985H11.4983H11.4981H11.4979H11.4977H11.4975H11.4973H11.4971H11.497H11.4968H11.4966H11.4964H11.4962H11.496H11.4958H11.4956H11.4954H11.4952H11.495H11.4949H11.4947H11.4945H11.4943H11.4941H11.4939H11.4937H11.4935H11.4933H11.4931H11.493H11.4928H11.4926H11.4924H11.4922H11.492H11.4918H11.4916H11.4914H11.4912H11.4911H11.4909H11.4907H11.4905H11.4903H11.4901H11.4899H11.4897H11.4895H11.4893H11.4892H11.489H11.4888H11.4886H11.4884H11.4882H11.488H11.4878H11.4876H11.4875H11.4873H11.4871H11.4869H11.4867H11.4865H11.4863H11.4861H11.4859H11.4858H11.4856H11.4854H11.4852H11.485H11.4848H11.4846H11.4844H11.4842H11.4841H11.4839H11.4837H11.4835H11.4833H11.4831H11.4829H11.4827H11.4826H11.4824H11.4822H11.482H11.4818H11.4816H11.4814H11.4813H11.4811H11.4809H11.4807H11.4805H11.4803H11.4801H11.4799H11.4798H11.4796H11.4794H11.4792H11.479H11.4788H11.4786H11.4785H11.4783H11.4781H11.4779H11.4777H11.4775H11.4773H11.4772H11.477H11.4768H11.4766H11.4764H11.4762H11.4761H11.4759H11.4757H11.4755H11.4753H11.4751H11.475H11.4748H11.4746H11.4744H11.4742H11.474H11.4739H11.4737H11.4735H11.4733H11.4731H11.4729H11.4728H11.4726H11.4724H11.4722H11.472H11.4719H11.4717H11.4715H11.4713H11.4711H11.4709H11.4708H11.4706H11.4704H11.4702H11.47H11.4699H11.4697H11.4695H11.4693H11.4691H11.469H11.4688H11.4686H11.4684H11.4683H11.4681H11.4679H11.4677H11.4675H11.4674H11.4672H11.467H11.4668H11.4666H11.4665H11.4663H11.4661H11.4659H11.4658H11.4656H11.4654H11.4652H11.4651H11.4649H11.4647H11.4645H11.4644H11.4642H11.464H11.4638H11.4637H11.4635H11.4633H11.4631H11.463H11.4628H11.4626H11.4624H11.4623H11.4621H11.4619H11.4617H11.4616H11.4614C9.61902 13.2091 8.26047 11.7809 8.26047 10.0301C8.26047 8.24114 9.72033 6.78128 11.5093 6.78128C13.2979 6.78128 14.7575 8.24053 14.7581 10.029C14.7495 11.7959 13.3751 13.2093 11.6312 13.2697H11.6311H11.6311H11.631H11.6309H11.6309H11.6308H11.6307H11.6306H11.6306H11.6305H11.6304H11.6303H11.6303H11.6302H11.6301H11.6301H11.63H11.6299H11.6298H11.6298H11.6297H11.6296H11.6296H11.6295H11.6294H11.6294H11.6293H11.6292H11.6292H11.6291H11.629H11.629H11.6289H11.6288H11.6288H11.6287H11.6286H11.6286H11.6285H11.6284H11.6284H11.6283H11.6283H11.6282H11.6281H11.6281H11.628H11.6279H11.6279H11.6278H11.6278H11.6277H11.6276H11.6276H11.6275H11.6275H11.6274H11.6273H11.6273H11.6272H11.6272H11.6271H11.627H11.627H11.6269H11.6269H11.6268H11.6268H11.6267H11.6266H11.6266H11.6265H11.6265H11.6264H11.6264H11.6263H11.6262H11.6262H11.6261H11.6261H11.626H11.626H11.6259H11.6259H11.6258H11.6258H11.6257H11.6257H11.6256H11.6255H11.6255H11.6254H11.6254H11.6253H11.6253H11.6252H11.6252H11.6251H11.6251H11.625H11.625H11.6249H11.6249H11.6248H11.6248H11.6247H11.6247H11.6246H11.6246H11.6245H11.6245H11.6244H11.6244H11.6243H11.6243H11.6243H11.6242H11.6242H11.6241H11.6241H11.624H11.624H11.6239H11.6239H11.6238H11.6238H11.6237H11.6237H11.6236H11.6236H11.6236H11.6235H11.6235H11.6234H11.6234H11.6233H11.6233H11.6232H11.6232H11.6232H11.6231H11.6231H11.623H11.623H11.6229H11.6229H11.6228H11.6228H11.6228H11.6227H11.6227H11.6226H11.6226H11.6226H11.6225H11.6225H11.6224H11.6224H11.6223H11.6223H11.6223H11.6222H11.6222H11.6221H11.6221H11.6221H11.622H11.622H11.6219H11.6219H11.6219H11.6218H11.6218H11.6217H11.6217H11.6217H11.6216H11.6216H11.6215H11.6215H11.6215H11.6214H11.6214H11.6213H11.6213H11.6213H11.6212H11.6212H11.6211H11.6211H11.6211H11.621H11.621H11.6209H11.6209H11.6209H11.6208H11.6208H11.6208H11.6207H11.6207H11.6206H11.6206H11.6206H11.6205H11.6205H11.6205H11.6204H11.6204H11.6203H11.6203H11.6203H11.6202H11.6202H11.6202H11.6201H11.6201H11.62H11.62H11.62H11.6199H11.6199H11.6199H11.6198H11.6198H11.6198H11.6197H11.6197H11.6196H11.6196H11.6196H11.6195H11.6195H11.6195H11.6194H11.6194H11.6194H11.6193H11.6193H11.6192H11.6192H11.6192H11.6191H11.6191H11.6191H11.619H11.619H11.619H11.6189H11.6189H11.6188H11.6188H11.6188H11.6187H11.6187H11.6187H11.6186H11.6186H11.6186H11.6185H11.6185H11.6184H11.6184H11.6184H11.6183H11.6183H11.6183H11.6182H11.6182H11.6181H11.6181H11.6181H11.618H11.618H11.618H11.6179H11.6179H11.6179H11.6178H11.6178H11.6177H11.6177H11.6177H11.6176H11.6176H11.6176H11.6175H11.6175H11.6174H11.6174H11.6174H11.6173H11.6173H11.6173H11.6172H11.6172H11.6171H11.6171H11.6171H11.617H11.617H11.617H11.6169H11.6169H11.6168H11.6168H11.6168H11.6167H11.6167H11.6167H11.6166H11.6166H11.6165H11.6165H11.6165H11.6164H11.6164H11.6163H11.6163H11.6163H11.6162H11.6162H11.6161H11.6161H11.6161H11.616H11.616H11.6159H11.6159H11.6159H11.6158H11.6158H11.6157H11.6157H11.6157H11.6156H11.6156H11.6155H11.6155H11.6155H11.6154H11.6154H11.6153H11.6153H11.6152H11.6152H11.6152H11.6151H11.6151H11.615H11.615H11.615H11.6149H11.6149H11.6148H11.6148H11.6147H11.6147H11.6147H11.6146H11.6146H11.6145H11.6145H11.6144H11.6144H11.6143H11.6143H11.6143H11.6142H11.6142H11.6141H11.6141H11.614H11.614H11.6139H11.6139H11.6138H11.6138H11.6137H11.6137H11.6137H11.6136H11.6136H11.6135H11.6135H11.6134H11.6134H11.6133H11.6133H11.6132H11.6132H11.6131H11.6131H11.613H11.613H11.6129H11.6129H11.6128H11.6128H11.6127H11.6127H11.6126H11.6126H11.6125H11.6125H11.6124H11.6124H11.6123H11.6123H11.6122H11.6122H11.6121H11.6121H11.612H11.612H11.6119H11.6118H11.6118H11.6117H11.6117H11.6116Z" stroke="#515358"/>
<path d="M5.09324 19.3541L5.09328 19.3541L5.08798 19.3494C5.05355 19.3188 5.02509 19.2592 5.03033 19.1846C5.13379 18.2588 5.7156 17.3494 6.76308 16.651C8.05058 15.7956 9.76507 15.3533 11.5035 15.3533C13.2416 15.3533 14.9531 15.7955 16.2355 16.65C17.2887 17.3611 17.8692 18.265 17.9704 19.1914L17.9703 19.1914L17.9713 19.1991C17.9782 19.2541 17.9601 19.3067 17.912 19.3494L17.912 19.3494L17.9067 19.3541C16.1474 20.9632 13.877 21.8464 11.5 21.8464C9.12298 21.8464 6.85255 20.9632 5.09324 19.3541Z" stroke="#515358"/>
<path d="M11.5 21.8464C6.25986 21.8464 2 17.5865 2 12.3464C2 7.10627 6.25986 2.84641 11.5 2.84641C16.7401 2.84641 21 7.10627 21 12.3464C21 17.5865 16.7401 21.8464 11.5 21.8464Z" stroke="#515358"/>
</svg>
