<svg width="24" height="24" viewBox="0 0 24 24" fill="none" xmlns="http://www.w3.org/2000/svg">
<path d="M16.6586 8.27712C17.6114 7.71288 18.2781 7.31952 18.7919 7.10807C19.3053 6.89675 19.5219 6.9288 19.6602 7.0079C19.7967 7.08599 19.9318 7.25257 20.0035 7.79679C20.0755 8.34244 20.0651 9.11035 20.0484 10.2105L20.0399 10.771C20.0394 10.8014 20.0389 10.8314 20.0385 10.861C20.03 11.388 20.0233 11.798 20.1802 12.1679C20.3383 12.5407 20.6374 12.8141 21.0163 13.1604C21.0376 13.1799 21.0592 13.1997 21.081 13.2197L21.4837 13.5885C22.2749 14.3132 22.8233 14.8176 23.1598 15.2369C23.4902 15.6486 23.527 15.8696 23.4863 16.048C23.4442 16.2329 23.305 16.4294 22.8158 16.6851C22.3219 16.9432 21.597 17.1985 20.5591 17.562L20.0301 17.7472C20.0028 17.7568 19.9758 17.7662 19.9492 17.7755C19.4473 17.9508 19.0634 18.0849 18.7634 18.3595C18.4644 18.6332 18.294 19.0051 18.0698 19.4943C18.058 19.5202 18.0459 19.5465 18.0337 19.5731L17.797 20.0887C17.3328 21.0998 17.0065 21.8074 16.7015 22.2809C16.3974 22.753 16.1913 22.8687 16.0148 22.8908C15.8479 22.9117 15.6412 22.8582 15.2717 22.4792C14.897 22.0949 14.4613 21.4871 13.8358 20.6108L13.5174 20.1648C13.4998 20.1402 13.4825 20.1159 13.4654 20.0919C13.1675 19.6737 12.9313 19.342 12.5816 19.142C12.2326 18.9423 11.826 18.9055 11.3116 18.8589C11.282 18.8563 11.2522 18.8536 11.2219 18.8508L10.6729 18.8006C9.59455 18.7019 8.84477 18.6318 8.32093 18.5023C7.80245 18.3741 7.65479 18.2229 7.59139 18.0734C7.52459 17.9159 7.52035 17.6845 7.78138 17.1865C8.0427 16.6879 8.49804 16.0541 9.14954 15.1501L9.48173 14.6892C9.49901 14.6652 9.51609 14.6415 9.53295 14.6182C9.84797 14.1819 10.0879 13.8495 10.1778 13.4553C10.2681 13.0586 10.193 12.66 10.0954 12.1424C10.0901 12.1146 10.0848 12.0865 10.0795 12.0581L9.9769 11.5115C9.77556 10.4387 9.63638 9.68993 9.61507 9.13791C9.59403 8.59297 9.6951 8.37607 9.83668 8.24648C9.97553 8.1194 10.1915 8.0408 10.7174 8.11861C11.2528 8.19781 11.9683 8.41652 12.997 8.73306L13.5207 8.89422C13.5487 8.90285 13.5764 8.91139 13.6037 8.91984C14.0971 9.07218 14.4839 9.19162 14.8865 9.14119C15.2857 9.09119 15.6387 8.88172 16.0962 8.61026C16.1215 8.59525 16.1471 8.58006 16.173 8.56469L16.6586 8.27712Z" fill="#515358" stroke="#515358"/>
<path d="M14.921 5.84211L14.3158 5.23684M10.0789 1L12.5 3.42105" stroke="#515358" stroke-linecap="round"/>
<path d="M6.4474 5.84205L3.42108 2.81573" stroke="#515358" stroke-linecap="round"/>
<path d="M5.84211 12.5001L4.02632 10.6843M1 7.65796L1.60526 8.26322" stroke="#515358" stroke-linecap="round"/>
</svg>
