<svg width="25" height="25" viewBox="0 0 25 25" fill="none" xmlns="http://www.w3.org/2000/svg">
<path d="M16.1538 7.99595C18.0308 6.8844 18.9693 6.32862 19.6585 6.72296C20.3478 7.11729 20.3313 8.20059 20.2984 10.3672L20.2898 10.9277C20.2805 11.5434 20.2758 11.8512 20.3905 12.1217C20.5053 12.3923 20.7264 12.5948 21.1688 13L21.5715 13.3689C23.128 14.7947 23.9063 15.5076 23.7239 16.3082C23.5414 17.1088 22.5191 17.4668 20.4744 18.1829L19.9454 18.3682C19.3644 18.5717 19.0739 18.6734 18.851 18.8774C18.6281 19.0814 18.4981 19.3645 18.2381 19.9308L18.0014 20.4463C17.0864 22.4391 16.629 23.4355 15.827 23.5359C15.025 23.6364 14.4096 22.7744 13.1788 21.0504L12.8604 20.6043C12.5107 20.1144 12.3358 19.8695 12.0833 19.725C11.8309 19.5806 11.5294 19.553 10.9263 19.4978L10.3774 19.4475C8.25532 19.2533 7.19431 19.1562 6.88109 18.4177C6.56788 17.6792 7.2099 16.7884 8.49393 15.0068L8.82612 14.5459C9.191 14.0396 9.37344 13.7865 9.44028 13.4932C9.50711 13.1999 9.45077 12.8997 9.33809 12.2994L9.2355 11.7527C8.83897 9.63995 8.6407 8.58356 9.24912 8.0267C9.85754 7.46983 10.8697 7.7813 12.894 8.40423L13.4177 8.56539C13.993 8.7424 14.2806 8.83091 14.5744 8.79411C14.8682 8.75732 15.1349 8.59939 15.6683 8.28352L16.1538 7.99595Z" stroke="#515358"/>
<path d="M14.6711 5.99115L14.0658 5.38589M9.82895 1.14905L12.25 3.5701" stroke="#515358" stroke-linecap="round"/>
<path d="M6.19737 5.9911L3.17105 2.96478" stroke="#515358" stroke-linecap="round"/>
<path d="M5.59211 12.6491L3.77632 10.8333M0.75 7.80698L1.35526 8.41224" stroke="#515358" stroke-linecap="round"/>
</svg>
