<svg width="37" height="37" viewBox="0 0 37 37" fill="none" xmlns="http://www.w3.org/2000/svg">
<g clip-path="url(#clip0_435_3703)">
<path d="M0.962891 17.3266C0.962891 9.18077 0.962891 5.10783 3.49349 2.57723C6.02409 0.0466309 10.097 0.0466309 18.2429 0.0466309H19.6829C27.8288 0.0466309 31.9017 0.0466309 34.4323 2.57723C36.9629 5.10783 36.9629 9.18077 36.9629 17.3266V18.7666C36.9629 26.9125 36.9629 30.9854 34.4323 33.516C31.9017 36.0466 27.8288 36.0466 19.6829 36.0466H18.2429C10.097 36.0466 6.02409 36.0466 3.49349 33.516C0.962891 30.9854 0.962891 26.9125 0.962891 18.7666V17.3266Z" fill="#F3F1FF"/>
<path d="M20.1181 25.9817C11.9131 25.9817 7.2331 20.3567 7.03809 10.9967H11.1481C11.2831 17.8667 14.313 20.7767 16.713 21.3767V10.9967H20.5832V16.9217C22.9531 16.6667 25.4428 13.9667 26.2829 10.9967H30.153C29.508 14.6567 26.808 17.3567 24.888 18.4667C26.808 19.3667 29.8831 21.7217 31.0531 25.9817H26.793C25.878 23.1317 23.5982 20.9267 20.5832 20.6267V25.9817H20.1181Z" fill="#8F94EC"/>
</g>
<defs>
<clipPath id="clip0_435_3703">
<rect width="36" height="36" fill="white" transform="translate(0.962891 0.0466309)"/>
</clipPath>
</defs>
</svg>
