<svg width="37" height="37" viewBox="0 0 37 37" fill="none" xmlns="http://www.w3.org/2000/svg">
<g clip-path="url(#clip0_435_3697)">
<path d="M18.9629 36.0466C28.904 36.0466 36.9629 27.9878 36.9629 18.0466C36.9629 8.1055 28.904 0.0466309 18.9629 0.0466309C9.02176 0.0466309 0.962891 8.1055 0.962891 18.0466C0.962891 27.9878 9.02176 36.0466 18.9629 36.0466Z" fill="#F3F1FF"/>
<path fill-rule="evenodd" clip-rule="evenodd" d="M9.11042 17.8566C14.3578 15.5704 17.8569 14.0632 19.6076 13.335C24.6064 11.2558 25.6451 10.8946 26.3221 10.8827C26.471 10.8801 26.804 10.917 27.0196 11.092C27.2017 11.2397 27.2518 11.4393 27.2758 11.5794C27.2998 11.7195 27.3296 12.0387 27.3059 12.288C27.035 15.1343 25.8629 22.0413 25.2666 25.2291C25.0143 26.578 24.5175 27.0303 24.0365 27.0745C22.9912 27.1707 22.1974 26.3837 21.185 25.7201C19.6008 24.6816 18.7058 24.0351 17.168 23.0218C15.3908 21.8506 16.5429 21.207 17.5557 20.155C17.8208 19.8797 22.4263 15.6906 22.5155 15.3106C22.5266 15.2631 22.537 15.0859 22.4317 14.9923C22.3265 14.8988 22.1711 14.9308 22.0591 14.9562C21.9002 14.9923 19.3693 16.6651 14.4665 19.9746C13.7482 20.4679 13.0975 20.7082 12.5145 20.6956C11.8718 20.6817 10.6355 20.3322 9.71649 20.0335C8.58924 19.6671 7.69332 19.4733 7.77134 18.851C7.81197 18.5269 8.25833 18.1954 9.11042 17.8566Z" fill="#8F94EC"/>
</g>
<defs>
<clipPath id="clip0_435_3697">
<rect width="36" height="36" fill="white" transform="translate(0.962891 0.0466309)"/>
</clipPath>
</defs>
</svg>
