<svg width="24" height="24" viewBox="0 0 24 24" fill="none" xmlns="http://www.w3.org/2000/svg">
<path fill-rule="evenodd" clip-rule="evenodd" d="M1.9 12.0005C1.9 6.42209 6.42178 1.9 11.9995 1.9C17.5772 1.9 22.099 6.42209 22.099 12.0005C22.099 17.579 17.5772 22.1011 11.9995 22.1011C6.42178 22.1011 1.9 17.579 1.9 12.0005ZM11.9995 0.1C5.4275 0.1 0.1 5.42814 0.1 12.0005C0.1 18.573 5.4275 23.9011 11.9995 23.9011C18.5715 23.9011 23.899 18.573 23.899 12.0005C23.899 5.42814 18.5715 0.1 11.9995 0.1ZM12.901 5.00025C12.901 4.5032 12.498 4.10025 12.001 4.10025C11.5039 4.10025 11.101 4.5032 11.101 5.00025V12.0006C11.101 12.205 11.1705 12.4032 11.2982 12.5628L15.298 17.563C15.6085 17.9512 16.1748 18.0141 16.563 17.7037C16.9511 17.3932 17.0141 16.8268 16.7036 16.4387L12.901 11.6849V5.00025Z" fill="#848282"/>
</svg>
