<svg width="24" height="25" viewBox="0 0 24 25" fill="none" xmlns="http://www.w3.org/2000/svg">
<path fill-rule="evenodd" clip-rule="evenodd" d="M16.8559 0.747457C16.7773 0.505597 16.6001 0.308281 16.368 0.2043C16.1359 0.10032 15.8707 0.0993817 15.6378 0.201718L1.81093 6.27948H1C0.502944 6.27948 0.1 6.68242 0.1 7.17948V23.5897C0.1 24.0868 0.502944 24.4897 1 24.4897H20C20.4971 24.4897 20.9 24.0868 20.9 23.5897V20.3872H23C23.4971 20.3872 23.9 19.9842 23.9 19.4872V11.282C23.9 10.785 23.4971 10.382 23 10.382H20.9V7.17948C20.9 6.68242 20.4971 6.27948 20 6.27948H18.6538L16.8559 0.747457ZM16.7612 6.27948L15.4515 2.24983L6.28407 6.27948H16.7612ZM19.1 10.382V8.07948H1.9V22.6897H19.1V20.3872H14C13.7574 20.3872 13.525 20.2892 13.3556 20.1155L9.3556 16.0129C9.0148 15.6634 9.0148 15.1059 9.3556 14.7563L13.3556 10.6538C13.525 10.48 13.7574 10.382 14 10.382H19.1ZM11.257 15.3846L14.3795 12.182H22.1V18.5872H14.3795L11.257 15.3846ZM16 16.9231C16.8284 16.9231 17.5 16.2343 17.5 15.3846C17.5 14.5349 16.8284 13.8461 16 13.8461C15.1716 13.8461 14.5 14.5349 14.5 15.3846C14.5 16.2343 15.1716 16.9231 16 16.9231Z" fill="#848282"/>
</svg>
