<svg width="16" height="16" viewBox="0 0 16 16" fill="none" xmlns="http://www.w3.org/2000/svg">
<mask id="path-1-inside-1_789_3757" fill="white">
<path d="M7.65925 2.23957C7.68697 2.16871 7.73417 2.1081 7.79484 2.06544C7.85552 2.02278 7.92693 2 8 2C8.07306 2 8.14448 2.02278 8.20515 2.06544C8.26583 2.1081 8.31303 2.16871 8.34074 2.23957L9.73321 5.74977C9.75927 5.81546 9.80212 5.87233 9.85704 5.91413C9.91195 5.95594 9.97681 5.98105 10.0445 5.98672L13.6603 6.29028C13.9873 6.31775 14.1196 6.74563 13.8706 6.96883L11.1158 9.44267C11.0644 9.48881 11.026 9.54892 11.005 9.61639C10.984 9.68387 10.981 9.75611 10.9966 9.82521L11.8386 13.5236C11.8555 13.5978 11.8511 13.6756 11.8259 13.7471C11.8006 13.8187 11.7557 13.8808 11.6968 13.9257C11.6379 13.9705 11.5677 13.996 11.495 13.999C11.4222 14.002 11.3503 13.9824 11.2882 13.9425L8.19199 11.9611C8.13418 11.9241 8.06775 11.9045 8 11.9045C7.93225 11.9045 7.86581 11.9241 7.808 11.9611L4.71181 13.9432C4.64973 13.9831 4.57778 14.0027 4.50504 13.9997C4.43231 13.9967 4.36206 13.9712 4.30316 13.9263C4.24426 13.8815 4.19936 13.8194 4.17412 13.7478C4.14889 13.6763 4.14445 13.5985 4.16138 13.5243L5.00341 9.82521C5.01903 9.75612 5.01616 9.68385 4.99512 9.61636C4.97407 9.54886 4.93568 9.48876 4.88415 9.44267L2.12936 6.96883C2.07389 6.91927 2.03369 6.85357 2.01387 6.78005C1.99405 6.70652 1.9955 6.62849 2.01802 6.55583C2.04055 6.48317 2.08314 6.41915 2.1404 6.37188C2.19767 6.3246 2.26703 6.29621 2.33971 6.29028L5.95553 5.98672C6.02319 5.98105 6.08804 5.95594 6.14296 5.91413C6.19787 5.87233 6.24072 5.81546 6.26679 5.74977L7.65925 2.23957Z"/>
</mask>
<path d="M7.65925 2.23957C7.68697 2.16871 7.73417 2.1081 7.79484 2.06544C7.85552 2.02278 7.92693 2 8 2C8.07306 2 8.14448 2.02278 8.20515 2.06544C8.26583 2.1081 8.31303 2.16871 8.34074 2.23957L9.73321 5.74977C9.75927 5.81546 9.80212 5.87233 9.85704 5.91413C9.91195 5.95594 9.97681 5.98105 10.0445 5.98672L13.6603 6.29028C13.9873 6.31775 14.1196 6.74563 13.8706 6.96883L11.1158 9.44267C11.0644 9.48881 11.026 9.54892 11.005 9.61639C10.984 9.68387 10.981 9.75611 10.9966 9.82521L11.8386 13.5236C11.8555 13.5978 11.8511 13.6756 11.8259 13.7471C11.8006 13.8187 11.7557 13.8808 11.6968 13.9257C11.6379 13.9705 11.5677 13.996 11.495 13.999C11.4222 14.002 11.3503 13.9824 11.2882 13.9425L8.19199 11.9611C8.13418 11.9241 8.06775 11.9045 8 11.9045C7.93225 11.9045 7.86581 11.9241 7.808 11.9611L4.71181 13.9432C4.64973 13.9831 4.57778 14.0027 4.50504 13.9997C4.43231 13.9967 4.36206 13.9712 4.30316 13.9263C4.24426 13.8815 4.19936 13.8194 4.17412 13.7478C4.14889 13.6763 4.14445 13.5985 4.16138 13.5243L5.00341 9.82521C5.01903 9.75612 5.01616 9.68385 4.99512 9.61636C4.97407 9.54886 4.93568 9.48876 4.88415 9.44267L2.12936 6.96883C2.07389 6.91927 2.03369 6.85357 2.01387 6.78005C1.99405 6.70652 1.9955 6.62849 2.01802 6.55583C2.04055 6.48317 2.08314 6.41915 2.1404 6.37188C2.19767 6.3246 2.26703 6.29621 2.33971 6.29028L5.95553 5.98672C6.02319 5.98105 6.08804 5.95594 6.14296 5.91413C6.19787 5.87233 6.24072 5.81546 6.26679 5.74977L7.65925 2.23957Z" fill="white"/>
<path d="M7.65925 2.23957L8.5888 2.60831L8.59055 2.60384L7.65925 2.23957ZM8.34074 2.23957L7.40944 2.60384L7.41121 2.60831L8.34074 2.23957ZM9.73321 5.74977L8.80367 6.11851L8.80372 6.11863L9.73321 5.74977ZM10.0445 5.98672L10.1281 4.99022L10.1279 4.9902L10.0445 5.98672ZM13.6603 6.29028L13.744 5.29379L13.7439 5.29379L13.6603 6.29028ZM13.8706 6.96883L13.2032 6.22421L13.2025 6.2248L13.8706 6.96883ZM11.1158 9.44267L11.7834 10.1872L11.784 10.1867L11.1158 9.44267ZM10.9966 9.82521L10.021 10.0447L10.0215 10.0472L10.9966 9.82521ZM11.8386 13.5236L10.8636 13.7456L10.8637 13.746L11.8386 13.5236ZM11.2882 13.9425L11.8282 13.1009L11.8272 13.1002L11.2882 13.9425ZM8.19199 11.9611L7.65274 12.8033L7.65297 12.8034L8.19199 11.9611ZM7.808 11.9611L8.34716 12.8033L8.34726 12.8033L7.808 11.9611ZM4.71181 13.9432L4.17266 13.101L4.17184 13.1015L4.71181 13.9432ZM4.16138 13.5243L5.13634 13.7467L5.13644 13.7462L4.16138 13.5243ZM5.00341 9.82521L5.97847 10.0472L5.97881 10.0457L5.00341 9.82521ZM4.88415 9.44267L4.216 10.1867L4.2174 10.1879L4.88415 9.44267ZM2.12936 6.96883L2.79751 6.2248L2.79562 6.22311L2.12936 6.96883ZM2.33971 6.29028L2.42097 7.28698L2.42337 7.28678L2.33971 6.29028ZM5.95553 5.98672L5.8721 4.9902L5.87187 4.99022L5.95553 5.98672ZM6.26679 5.74977L7.19627 6.11863L7.19632 6.11851L6.26679 5.74977ZM8.59055 2.60384C8.54865 2.71095 8.47436 2.81011 8.36999 2.88349L7.21969 1.24739C6.99397 1.40609 6.82528 1.62648 6.72796 1.8753L8.59055 2.60384ZM8.36999 2.88349C8.26499 2.95731 8.13613 3 8 3V1C7.71774 1 7.44605 1.08824 7.21969 1.24739L8.36999 2.88349ZM8 3C7.86387 3 7.73501 2.95731 7.63 2.88349L8.7803 1.24739C8.55394 1.08824 8.28226 1 8 1V3ZM7.63 2.88349C7.52563 2.81011 7.45134 2.71095 7.40945 2.60384L9.27204 1.8753C9.17471 1.62648 9.00602 1.40609 8.7803 1.24739L7.63 2.88349ZM7.41121 2.60831L8.80367 6.11851L10.6627 5.38104L9.27028 1.87083L7.41121 2.60831ZM8.80372 6.11863C8.8952 6.34915 9.04808 6.5551 9.25133 6.70982L10.4628 5.11845C10.5562 5.18956 10.6233 5.28176 10.6627 5.38091L8.80372 6.11863ZM9.25133 6.70982C9.45502 6.86488 9.70042 6.96141 9.96104 6.98323L10.1279 4.9902C10.2532 5.00069 10.3689 5.04699 10.4628 5.11845L9.25133 6.70982ZM9.96081 6.98321L13.5766 7.28678L13.7439 5.29379L10.1281 4.99022L9.96081 6.98321ZM13.5766 7.28677C13.2727 7.26124 13.0847 7.04081 13.0262 6.85203C12.9684 6.66538 13.0008 6.40558 13.2032 6.22421L14.5381 7.71346C15.3818 6.95717 15.022 5.40116 13.744 5.29379L13.5766 7.28677ZM13.2025 6.2248L10.4477 8.69864L11.784 10.1867L14.5388 7.71286L13.2025 6.2248ZM10.4483 8.69811C10.2594 8.86744 10.1237 9.08322 10.0503 9.31877L11.9597 9.91402C11.9283 10.0146 11.8693 10.1102 11.7834 10.1872L10.4483 8.69811ZM10.0503 9.31877C9.97693 9.55412 9.96699 9.8047 10.021 10.0447L11.9722 9.60577C11.9951 9.70753 11.991 9.81362 11.9597 9.91402L10.0503 9.31877ZM10.0215 10.0472L10.8636 13.7456L12.8137 13.3016L11.9716 9.60321L10.0215 10.0472ZM10.8637 13.746C10.8387 13.6365 10.845 13.5218 10.8828 13.4146L12.7689 14.0797C12.8572 13.8293 12.8724 13.5591 12.8136 13.3012L10.8637 13.746ZM10.8828 13.4146C10.9207 13.307 10.9907 13.2064 11.0912 13.1299L12.3025 14.7214C12.5207 14.5553 12.6806 14.3304 12.7689 14.0797L10.8828 13.4146ZM11.0912 13.1299C11.1922 13.053 11.3183 13.0055 11.4537 12.9999L11.5362 14.9982C11.8171 14.9866 12.0836 14.888 12.3025 14.7214L11.0912 13.1299ZM11.4537 12.9999C11.5891 12.9943 11.7197 13.0313 11.8282 13.1009L10.7482 14.7842C10.9808 14.9334 11.2553 15.0098 11.5362 14.9982L11.4537 12.9999ZM11.8272 13.1002L8.73102 11.1188L7.65297 12.8034L10.7492 14.7848L11.8272 13.1002ZM8.73125 11.119C8.51474 10.9804 8.26157 10.9045 8 10.9045V12.9045C7.87392 12.9045 7.75363 12.8679 7.65274 12.8033L8.73125 11.119ZM8 10.9045C7.73843 10.9045 7.48526 10.9804 7.26875 11.119L8.34726 12.8033C8.24637 12.8679 8.12607 12.9045 8 12.9045V10.9045ZM7.26885 11.1189L4.17266 13.101L5.25097 14.7854L8.34716 12.8033L7.26885 11.1189ZM4.17184 13.1015C4.28028 13.032 4.41085 12.995 4.54633 13.0006L4.46375 14.9988C4.74471 15.0105 5.01918 14.9341 5.25179 14.7849L4.17184 13.1015ZM4.54633 13.0006C4.68174 13.0061 4.80775 13.0537 4.90881 13.1306L3.69751 14.7221C3.91636 14.8886 4.18288 14.9872 4.46375 14.9988L4.54633 13.0006ZM4.90881 13.1306C5.00925 13.2071 5.07928 13.3077 5.1172 13.4153L3.23105 14.0804C3.31944 14.3311 3.47927 14.556 3.69751 14.7221L4.90881 13.1306ZM5.1172 13.4153C5.15503 13.5225 5.16131 13.6372 5.13634 13.7467L3.18642 13.3019C3.1276 13.5598 3.14275 13.83 3.23105 14.0804L5.1172 13.4153ZM5.13644 13.7462L5.97847 10.0472L4.02835 9.60325L3.18632 13.3023L5.13644 13.7462ZM5.97881 10.0457C6.03311 9.80541 6.02328 9.55444 5.9498 9.31873L4.04043 9.91398C4.00903 9.81326 4.00495 9.70682 4.02801 9.60475L5.97881 10.0457ZM5.9498 9.31873C5.87625 9.08283 5.74024 8.86677 5.5509 8.69738L4.2174 10.1879C4.13112 10.1108 4.07189 10.0149 4.04043 9.91398L5.9498 9.31873ZM5.5523 8.69864L2.79751 6.2248L1.46121 7.71286L4.216 10.1867L5.5523 8.69864ZM2.79562 6.22311C2.88849 6.30608 2.94996 6.41054 2.9794 6.51975L1.04834 7.04034C1.11743 7.29659 1.25929 7.53246 1.4631 7.71455L2.79562 6.22311ZM2.9794 6.51975C3.00879 6.62875 3.00674 6.74365 2.97318 6.85192L1.06286 6.25974C0.984251 6.51333 0.979321 6.7843 1.04834 7.04034L2.9794 6.51975ZM2.97318 6.85192C2.93954 6.96044 2.87377 7.06319 2.77701 7.14306L1.50379 5.60069C1.29251 5.77511 1.14155 6.00589 1.06286 6.25974L2.97318 6.85192ZM2.77701 7.14306C2.67967 7.22342 2.55608 7.27596 2.42097 7.28697L2.25844 5.29359C1.97798 5.31645 1.71566 5.42579 1.50379 5.60069L2.77701 7.14306ZM2.42337 7.28678L6.03919 6.98321L5.87187 4.99022L2.25605 5.29379L2.42337 7.28678ZM6.03896 6.98323C6.29957 6.96141 6.54497 6.86488 6.74867 6.70982L5.53724 5.11845C5.63111 5.04699 5.7468 5.00069 5.8721 4.9902L6.03896 6.98323ZM6.74867 6.70982C6.95191 6.5551 7.10479 6.34915 7.19627 6.11863L5.3373 5.38091C5.37665 5.28176 5.44384 5.18956 5.53724 5.11845L6.74867 6.70982ZM7.19632 6.11851L8.58879 2.60831L6.72972 1.87083L5.33725 5.38104L7.19632 6.11851Z" fill="#FA7E7F" mask="url(#path-1-inside-1_789_3757)"/>
</svg>
