<svg width="16" height="16" viewBox="0 0 16 16" fill="none" xmlns="http://www.w3.org/2000/svg">
<path d="M7.65925 2.23957C7.68697 2.16871 7.73417 2.1081 7.79484 2.06544C7.85552 2.02278 7.92693 2 8 2C8.07306 2 8.14448 2.02278 8.20515 2.06544C8.26583 2.1081 8.31303 2.16871 8.34074 2.23957L9.73321 5.74977C9.75927 5.81546 9.80212 5.87233 9.85704 5.91413C9.91195 5.95594 9.97681 5.98105 10.0445 5.98672L13.6603 6.29028C13.9873 6.31775 14.1196 6.74563 13.8706 6.96883L11.1158 9.44267C11.0644 9.48881 11.026 9.54892 11.005 9.61639C10.984 9.68387 10.981 9.75611 10.9966 9.82521L11.8386 13.5236C11.8555 13.5978 11.8511 13.6756 11.8259 13.7471C11.8006 13.8187 11.7557 13.8808 11.6968 13.9257C11.6379 13.9705 11.5677 13.996 11.495 13.999C11.4222 14.002 11.3503 13.9824 11.2882 13.9425L8.19199 11.9611C8.13418 11.9241 8.06775 11.9045 8 11.9045C7.93225 11.9045 7.86581 11.9241 7.808 11.9611L4.71181 13.9432C4.64973 13.9831 4.57778 14.0027 4.50504 13.9997C4.43231 13.9967 4.36206 13.9712 4.30316 13.9263C4.24426 13.8815 4.19936 13.8194 4.17412 13.7478C4.14889 13.6763 4.14445 13.5985 4.16138 13.5243L5.00341 9.82521C5.01903 9.75612 5.01616 9.68385 4.99512 9.61636C4.97407 9.54886 4.93568 9.48876 4.88415 9.44267L2.12936 6.96883C2.07389 6.91927 2.03369 6.85357 2.01387 6.78005C1.99405 6.70652 1.9955 6.62849 2.01802 6.55583C2.04055 6.48317 2.08314 6.41915 2.1404 6.37188C2.19767 6.3246 2.26703 6.29621 2.33971 6.29028L5.95553 5.98672C6.02319 5.98105 6.08804 5.95594 6.14296 5.91413C6.19787 5.87233 6.24072 5.81546 6.26679 5.74977L7.65925 2.23957Z" fill="#FA7E7F"/>
</svg>
