<svg width="655" height="290" viewBox="0 0 655 290" fill="none" xmlns="http://www.w3.org/2000/svg">
<path d="M210.513 222.464H180.712V274.692H108.459V222.464H0.78125V168.832L113.238 4.56616H180.712V167.989H210.513V222.464ZM108.74 167.989V136.54C108.74 130.643 109.021 122.781 109.302 112.673C109.864 102.564 110.145 97.5095 110.427 96.9479H108.459C104.241 106.495 99.4621 115.2 94.1204 123.624L64.0382 167.989H108.74Z" fill="#8F94EC" fill-opacity="0.32"/>
<path d="M425.025 140.19C425.025 187.926 416.871 223.025 401.128 245.208C385.102 267.391 360.643 278.623 327.468 278.623C295.137 278.623 270.959 267.11 254.371 243.804C238.065 220.498 229.912 185.96 229.912 140.19C229.912 92.1744 237.784 57.0749 254.09 34.6113C270.115 12.1476 294.575 0.915771 327.749 0.915771C359.8 0.915771 384.259 12.7092 400.565 36.0152C416.59 59.3213 425.025 93.8592 425.025 140.19ZM302.447 140.19C302.447 170.797 304.415 191.857 308.07 203.089C312.006 214.601 318.191 220.217 327.187 220.217C336.184 220.217 342.65 214.32 346.586 202.527C350.241 190.734 352.209 169.955 352.209 140.19C352.209 110.145 350.241 89.3664 346.586 77.2922C342.65 65.218 336.465 59.3213 327.468 59.3213C318.472 59.3213 312.006 65.218 308.351 76.7306C304.134 88.2432 302.447 109.303 302.447 140.19Z" fill="#8F94EC" fill-opacity="0.32"/>
<path d="M654.436 222.464H624.635V274.692H552.381V222.464H444.704V168.832L557.161 4.56616H624.635V167.989H654.436V222.464ZM552.663 167.989V136.54C552.663 130.643 552.944 122.781 553.225 112.673C553.787 102.564 554.068 97.5095 554.349 96.9479H552.381C548.164 106.495 543.385 115.2 538.043 123.624L507.961 167.989H552.663Z" fill="#8F94EC" fill-opacity="0.32"/>
<path d="M448.359 241.839C448.359 241.839 450.889 237.907 451.452 233.696C452.014 229.484 448.078 225.552 444.704 223.025C441.331 220.498 433.178 213.759 438.238 210.67C443.299 207.582 470.288 199.438 476.755 194.384C483.221 189.33 483.221 180.064 481.534 176.132C479.847 171.92 461.573 155.915 426.992 155.915C392.412 155.915 350.803 172.763 344.618 173.044C338.433 173.324 338.714 161.812 338.714 161.812L337.87 155.915H314.817L311.162 161.812C311.162 161.812 312.568 169.674 306.101 170.516C299.635 171.078 267.585 153.95 244.531 144.964C230.474 139.348 208.545 135.417 201.798 135.417C191.396 135.417 175.933 143.56 172.559 156.477C169.185 169.393 180.712 195.507 183.524 201.966C186.335 208.424 188.303 211.793 186.897 215.163C185.492 218.533 182.118 230.888 181.274 234.257C180.712 237.627 180.712 243.804 181.274 244.366C181.837 244.927 191.396 253.351 192.239 253.632C193.082 253.913 197.862 254.755 195.894 250.262C198.143 252.79 199.268 256.721 201.236 253.632C203.204 250.262 201.236 235.661 201.236 228.36C201.236 221.06 213.325 211.793 214.449 211.232C215.574 210.67 225.414 211.232 227.944 211.232C230.474 211.232 233.848 207.862 227.944 205.335C222.04 202.808 216.698 204.212 212.2 203.931C207.702 203.65 200.392 202.246 203.485 192.699C204.89 188.487 205.453 182.31 205.734 176.413H206.015C218.666 189.049 249.03 201.966 249.03 201.966L268.71 215.163L329.155 230.326L374.138 222.183L386.789 210.67C386.789 210.67 386.227 201.685 398.878 201.685C405.345 201.685 414.622 200.562 416.309 199.438" fill="white"/>
<path d="M200.111 256.44C198.986 256.44 197.862 255.598 197.3 254.474C195.613 255.598 193.364 255.317 192.239 255.036C191.677 254.755 191.396 254.755 182.961 247.454C181.837 246.331 180.712 245.489 180.712 245.489C178.463 243.804 180.15 233.696 180.15 233.696C180.712 230.326 184.367 217.69 185.773 214.04C186.616 211.793 185.773 209.547 183.524 205.054C183.242 204.212 182.68 203.37 182.399 202.246L182.118 201.685C172.559 179.783 168.904 164.058 171.153 155.634C174.808 142.718 190.271 133.451 202.079 133.451C202.079 133.451 202.079 133.451 202.36 133.451C209.67 133.451 231.599 137.663 245.375 143.279C254.652 146.93 265.055 151.703 275.176 156.196C288.671 162.373 302.728 168.832 306.101 168.551C307.226 168.551 308.069 167.989 308.913 167.147C310.037 165.462 310.037 162.935 309.756 162.093C309.756 161.531 309.756 161.25 310.037 160.969L313.692 155.073C313.973 154.511 314.536 154.23 315.098 154.23H338.152C338.995 154.23 339.838 154.792 339.838 155.915L340.682 161.812C340.682 163.777 340.963 169.113 342.931 171.078C343.493 171.64 344.056 171.92 344.618 171.64C346.024 171.64 350.803 170.236 356.426 168.27C373.294 162.935 401.69 154.511 426.992 154.511C462.416 154.511 481.534 171.359 483.221 175.852C485.189 180.906 484.908 190.734 477.879 196.35C473.662 199.438 462.697 203.65 452.857 207.301C446.672 209.547 441.049 211.793 439.082 212.917C438.238 213.478 438.238 213.759 438.238 214.04C438.238 215.725 441.05 219.094 445.548 222.464C448.078 224.429 453.982 229.203 452.857 234.819C452.014 239.311 449.765 243.523 449.484 243.523C448.922 244.366 447.797 244.647 446.954 244.085C446.11 243.523 445.829 242.4 446.391 241.558C446.391 241.558 448.64 237.907 449.203 233.976C449.765 230.045 444.704 226.114 443.299 224.991C439.925 222.464 434.302 217.69 434.583 213.478C434.583 212.355 435.146 210.67 437.114 209.547C439.363 208.143 444.985 206.178 451.452 203.65C460.448 200.281 471.694 196.069 475.349 193.261C481.253 188.768 480.972 180.344 479.566 176.975C477.879 173.044 459.886 157.881 426.43 157.881C401.69 157.881 373.576 166.585 356.707 171.64C350.241 173.605 345.742 175.009 344.056 175.009C342.369 175.009 340.963 174.448 339.557 173.324C336.184 169.955 336.184 162.654 336.184 161.812L335.621 157.881H315.098L312.287 162.373C312.568 163.777 312.568 167.147 310.6 169.674C309.475 171.359 307.507 172.201 305.539 172.482C301.322 172.763 290.358 167.989 272.646 159.846C262.524 155.354 252.403 150.58 243.126 146.93C228.787 141.314 206.858 137.383 201.236 137.383C191.958 137.383 177.057 144.964 173.684 157.038C172.278 162.373 172.84 174.448 184.367 200.842L184.648 201.404C184.929 202.246 185.492 203.37 185.773 204.212C188.022 209.266 189.428 212.355 188.022 216.005C186.616 219.375 183.242 231.73 182.68 234.819C182.118 237.907 182.118 242.119 182.399 243.523C182.961 243.804 183.524 244.647 184.648 245.489C186.897 247.455 191.396 251.386 192.52 252.228C193.364 252.509 193.926 252.228 194.207 252.228C194.207 252.228 194.207 251.947 193.926 251.386C193.645 250.543 193.926 249.701 194.488 249.139C195.332 248.578 196.175 248.859 196.737 249.42C197.581 250.262 198.143 251.105 198.705 251.947C198.986 252.228 199.268 252.79 199.549 253.07C200.673 251.386 200.111 242.962 199.83 237.346C199.549 233.976 199.268 231.168 199.268 228.641C199.268 219.937 213.325 210.109 213.325 209.828C214.168 209.266 216.136 209.266 224.289 209.547C225.695 209.547 227.101 209.547 227.663 209.547C228.506 209.547 229.069 208.985 229.35 208.705C229.35 208.424 229.069 207.862 227.101 207.02C223.446 205.335 219.791 205.616 216.417 205.616C214.73 205.616 213.325 205.616 211.919 205.616C208.826 205.335 204.609 204.774 202.36 201.404C200.673 199.158 200.673 195.788 201.798 192.138C202.922 188.768 203.766 183.433 204.047 176.413C204.047 175.852 204.328 175.571 204.609 175.29C204.89 175.009 205.453 174.728 206.015 174.728H206.296C206.858 174.728 207.139 175.009 207.421 175.29C219.791 187.645 249.592 200.281 249.873 200.562L269.553 213.759L329.436 228.641L373.576 220.498L385.383 209.828C385.383 208.424 385.946 205.897 387.914 203.65C390.444 201.123 394.099 199.719 399.159 199.719C406.188 199.719 414.341 198.596 415.466 197.754C416.309 197.192 417.434 197.473 417.996 198.034C418.558 198.877 418.558 199.719 417.715 200.562C415.184 202.527 403.095 203.089 399.159 203.089C395.223 203.089 392.412 203.931 390.725 205.897C389.038 207.862 389.038 210.109 389.038 210.109C389.038 210.67 388.757 211.232 388.476 211.513L375.825 223.025C375.543 223.306 375.262 223.306 374.981 223.587L329.999 231.73C329.717 231.73 329.436 231.73 329.155 231.73L268.71 216.567C268.428 216.567 268.428 216.567 268.147 216.286L248.467 203.089C247.624 202.808 221.197 191.576 207.421 179.502C206.858 185.118 206.296 189.611 205.171 192.699C204.328 195.507 204.328 197.754 205.171 199.158C206.577 201.123 209.951 201.685 212.2 201.966C213.325 201.966 214.73 201.966 216.136 201.966C219.791 201.966 224.008 201.685 228.506 203.65C233.005 205.616 233.005 208.143 232.723 209.266C232.161 211.513 229.912 212.917 227.663 212.917C226.819 212.917 225.695 212.917 224.008 212.917C221.478 212.917 215.855 212.636 214.73 212.917C212.762 214.04 202.641 222.744 202.641 228.36C202.641 230.607 202.922 233.696 202.922 236.784C203.485 245.77 203.766 251.947 202.36 254.474C202.641 255.036 201.798 256.44 200.111 256.44Z" fill="#3B4B75"/>
<path d="M358.113 100.879C358.113 100.879 364.579 91.0512 377.792 93.2975C391.006 95.5439 370.483 108.741 361.205 107.899L355.02 123.623L344.337 135.417L327.187 131.767L308.35 131.486L300.197 123.623L296.261 106.214C296.261 106.214 274.332 100.037 275.457 91.8936C276.581 83.7505 294.293 94.9823 294.293 94.9823C294.293 94.9823 297.667 86.8393 300.197 85.9969C302.728 85.1545 302.446 75.0458 302.446 75.0458L348.554 71.3955L358.394 84.3121V100.879H358.113Z" fill="white"/>
<path d="M344.618 137.102H344.337L327.187 133.451L308.632 133.171C308.069 133.171 307.788 132.89 307.507 132.609L299.354 124.747C299.073 124.466 298.792 124.185 298.792 123.904L295.137 107.618C290.357 106.214 272.926 100.317 274.051 91.6128C274.332 89.0857 275.738 88.2433 276.862 87.6817C281.361 85.7161 289.795 89.9281 294.012 92.4552C295.418 89.3665 297.667 85.1545 300.197 84.3121C300.76 83.7505 301.322 79.2578 301.041 75.0458C301.041 74.2035 301.603 73.3611 302.727 73.0803L348.835 69.4299C349.397 69.4299 349.959 69.7108 350.522 69.9916L360.362 82.9081C360.643 83.1889 360.643 83.4698 360.643 84.0313V96.1055C364.017 93.2976 370.202 89.6472 378.917 91.332C384.259 92.1744 384.821 94.9824 384.54 96.6672C383.696 102.283 370.764 109.303 363.173 109.584L357.269 124.185C357.269 124.466 356.988 124.466 356.988 124.747L346.305 136.54C345.461 136.821 344.899 137.102 344.618 137.102ZM309.194 129.239L327.468 129.52L344.055 133.171L353.895 122.22L360.08 106.776C360.362 105.933 361.205 105.653 361.767 105.653C367.952 106.214 380.042 99.1943 380.604 95.8248C380.604 95.2632 379.198 94.7016 377.792 94.4208C365.985 92.4552 360.081 101.16 359.799 101.441C359.237 102.002 358.675 102.283 357.831 102.283C356.988 102.002 356.426 101.441 356.426 100.598V84.5929L347.429 72.7995L304.133 76.4498C304.133 80.6618 303.571 86.5585 300.76 87.4009C299.916 87.6817 297.386 91.6128 295.98 95.544C295.699 96.1055 295.418 96.3864 294.856 96.6672C294.293 96.948 293.731 96.6671 293.45 96.3863C288.67 93.2976 280.798 89.6472 277.987 90.7704C277.706 90.7704 277.425 91.0512 277.144 91.8936C276.581 96.9479 290.076 102.564 296.823 104.249C297.386 104.529 297.948 104.81 297.948 105.653L301.884 122.5L309.194 129.239Z" fill="#3B4B75"/>
<path d="M423.619 284.8C412.654 283.396 401.409 282.273 390.444 281.15C386.789 280.869 383.134 280.588 379.48 280.308C374.981 280.027 370.483 279.746 365.704 279.465C360.362 279.184 355.301 278.904 350.241 278.904C327.187 278.342 303.571 278.904 280.236 280.869C276.582 281.15 272.927 281.431 269.272 281.712C265.336 281.992 261.119 282.554 257.183 282.835C243.407 284.239 229.912 285.924 216.979 287.889C216.979 287.889 195.613 280.027 196.175 244.085C196.737 208.143 235.816 201.685 249.873 201.966C260.275 201.966 306.664 213.759 333.935 214.321C361.205 214.882 392.693 209.547 408.718 210.109C424.743 210.67 444.704 227.518 444.704 248.858C444.704 269.637 426.43 285.081 423.619 284.8Z" fill="#8F94EC"/>
<path d="M216.98 289.574C216.699 289.574 216.417 289.574 216.417 289.574C215.574 289.293 193.926 280.588 194.488 244.085C195.051 209.266 230.756 200 249.873 200C254.09 200 263.649 201.685 275.738 204.212C294.294 207.862 317.628 212.074 333.935 212.355C348.835 212.636 365.141 211.232 379.48 209.828C391.288 208.705 401.409 207.862 408.718 208.143C425.868 208.705 446.673 226.956 446.673 248.578C446.673 263.179 438.238 275.815 430.366 282.835C428.398 284.8 425.306 286.766 423.338 286.485C412.092 285.081 400.846 283.677 390.444 282.835C386.789 282.554 383.135 282.273 379.48 281.992C374.981 281.712 370.483 281.431 365.985 281.15C360.924 280.869 355.583 280.588 350.522 280.588C328.593 280.027 304.977 280.588 280.518 282.554C276.863 282.835 273.208 283.116 269.553 283.396C265.617 283.677 261.4 284.239 257.464 284.52C243.969 285.924 230.474 287.608 216.98 289.574ZM249.592 203.37C231.88 203.37 198.424 211.793 197.862 243.804C197.3 275.534 214.168 284.52 216.98 285.924C230.193 283.958 243.688 282.273 256.902 280.869C260.838 280.588 265.055 280.027 268.991 279.746C272.646 279.465 276.301 279.184 279.955 278.904C304.415 277.219 328.031 276.376 350.241 276.938C355.301 276.938 360.643 277.219 365.704 277.5C370.202 277.78 374.7 278.061 379.48 278.342C383.135 278.623 386.789 278.904 390.444 279.184C401.128 280.027 412.092 281.431 423.619 282.835C426.43 282.273 442.737 267.953 442.737 248.297C442.737 228.36 423.9 212.074 408.437 211.513C401.409 211.232 391.288 212.074 379.761 213.197C365.423 214.601 349.116 216.005 333.935 215.725C317.066 215.444 293.731 210.951 274.895 207.301C263.368 205.335 253.528 203.37 249.592 203.37Z" fill="#3B4B75"/>
<path d="M414.06 262.617C388.195 262.617 349.96 259.248 310.881 252.228C249.311 240.996 197.581 254.755 197.019 255.036C196.175 255.317 195.051 254.755 194.769 253.913C194.488 253.07 195.051 251.947 195.894 251.666C196.456 251.386 249.03 237.627 311.162 248.858C374.138 260.371 430.085 260.933 442.455 256.44C443.299 256.159 444.423 256.721 444.705 257.563C444.986 258.405 444.705 259.529 443.58 259.81C438.801 261.775 428.117 262.617 414.06 262.617Z" fill="#3B4B75"/>
<path d="M195.05 249.982H194.769C194.488 249.982 187.741 247.735 186.897 242.4C186.054 237.627 186.897 230.607 186.897 230.045C186.897 229.203 187.46 228.922 188.303 228.922C189.146 228.922 189.709 229.764 189.428 230.326C189.428 230.326 188.865 237.626 189.428 241.838C189.99 245.489 195.613 247.454 195.613 247.454C196.175 247.735 196.737 248.297 196.456 249.139C196.175 249.42 195.613 249.982 195.05 249.982Z" fill="#3B4B75"/>
<path d="M446.954 245.489C446.672 245.489 446.11 245.208 445.829 244.927C445.267 244.366 445.548 243.523 446.11 242.962C447.235 242.119 447.516 236.784 446.954 232.291C446.954 231.449 447.516 230.887 448.078 230.887C448.922 230.887 449.484 231.449 449.484 232.011C449.765 234.538 450.327 242.681 447.516 244.927C447.516 245.489 447.235 245.489 446.954 245.489Z" fill="#3B4B75"/>
<path d="M327.469 126.432C326.625 126.432 325.782 125.589 325.782 124.747C325.501 116.323 324.657 102.845 324.376 99.1944C323.251 99.1944 321.283 98.9136 320.159 99.1944C319.315 102.002 317.629 113.515 316.504 123.624C316.504 124.466 315.661 125.308 314.536 125.028C313.693 125.028 312.849 123.904 313.13 123.062C316.223 97.2288 317.347 96.6672 317.91 96.1056C319.597 94.7017 325.782 95.5441 326.625 95.8249C327.75 96.3865 328.031 96.6672 329.437 124.466C329.437 125.589 328.593 126.432 327.469 126.432Z" fill="#3B4B75"/>
<path d="M312.286 112.392C312.567 114.077 309.194 113.796 305.258 114.357C301.322 114.919 298.229 116.323 297.948 114.919C297.667 113.234 300.197 109.303 304.133 108.741C308.069 107.899 312.005 110.988 312.286 112.392Z" fill="#FF9292"/>
<path d="M305.539 110.426C298.229 110.426 292.325 104.529 292.325 97.2288C292.325 89.9281 298.229 84.0314 305.539 84.0314C312.849 84.0314 318.753 89.9281 318.753 97.2288C318.753 104.529 312.849 110.426 305.539 110.426ZM305.539 87.6817C300.197 87.6817 295.699 91.8936 295.699 97.5095C295.699 102.845 299.916 107.337 305.539 107.337C310.881 107.337 315.379 103.125 315.379 97.5095C315.379 91.8936 310.881 87.6817 305.539 87.6817Z" fill="#3B4B75"/>
<path d="M329.999 114.357C329.717 116.042 333.372 116.042 337.589 116.884C341.806 117.727 345.18 119.692 345.461 117.727C345.743 116.042 343.212 111.549 338.995 110.426C334.778 109.584 330.561 112.672 329.999 114.357Z" fill="#FF9292"/>
<path d="M338.714 112.111C338.433 112.111 338.152 112.111 337.871 112.111C334.216 111.83 331.123 110.426 328.593 107.618C326.344 105.091 324.938 101.721 325.219 98.0712C325.5 90.7705 331.686 85.1546 339.276 85.4354C346.586 85.7162 352.209 92.1745 351.928 99.4751C351.647 103.125 350.241 106.214 347.429 108.741C345.18 110.988 342.088 112.111 338.714 112.111ZM329.155 98.3519C329.155 100.879 329.999 103.406 331.686 105.372C333.372 107.337 335.903 108.461 338.433 108.461C340.963 108.461 343.493 107.618 345.461 105.933C347.429 104.249 348.554 101.721 348.554 99.1943C348.835 93.8592 344.618 89.3665 339.276 89.0857C333.935 89.0857 329.436 93.0168 329.155 98.3519Z" fill="#3B4B75"/>
<path d="M305.54 59.8829C305.54 59.8829 298.23 56.2326 292.326 61.2869C286.422 66.0604 283.329 77.5731 289.233 81.5042C295.137 85.4354 296.262 85.997 299.917 85.997C303.853 86.2778 303.009 82.6274 307.508 80.1002C312.006 77.5731 316.785 77.8538 318.191 80.6618C319.597 83.4698 319.878 86.8393 323.533 85.997C327.187 85.1546 325.782 78.9771 329.718 78.4155C333.654 77.8539 334.497 80.6618 338.714 80.9426C342.931 81.2234 342.088 79.2578 345.462 82.3466C348.835 85.4354 351.085 83.4698 351.928 85.997C352.771 88.5241 355.021 92.1745 356.707 94.9824C358.394 97.7904 358.394 100.879 358.394 100.879C358.394 100.879 364.861 94.4208 369.078 93.2976C369.078 93.2976 366.547 89.3665 369.078 85.997C371.608 82.6274 374.982 78.4155 371.046 75.3267C367.11 72.5187 364.298 75.8883 363.174 72.7995C362.049 69.7108 360.362 52.5822 348.554 52.5822C336.746 52.5822 336.465 61.0061 331.123 59.8829C325.782 58.4789 325.219 50.055 319.597 52.5822C313.974 55.1094 318.472 64.3756 313.974 64.0948C308.913 63.5333 310.881 61.0061 305.54 59.8829Z" fill="#3B4B75"/>
<path d="M358.113 119.692C357.832 117.165 362.33 110.988 361.206 109.865C360.081 108.741 356.145 111.83 354.458 113.796C352.771 115.48 350.522 120.816 345.743 121.658C340.963 122.5 336.184 123.343 333.372 123.624C330.561 124.185 327.469 124.747 327.469 124.747C327.469 124.747 325.219 128.116 320.44 128.116C315.661 128.116 314.817 125.589 314.817 124.466C314.817 123.343 314.817 123.343 314.817 123.343C314.817 123.343 308.351 122.781 304.415 119.131C300.479 115.48 296.262 111.269 296.543 108.461C296.543 108.461 294.013 115.2 294.294 120.254C294.575 125.308 294.575 129.239 294.294 132.047C294.013 134.855 292.607 140.752 294.294 142.998C295.981 144.964 296.262 147.772 296.543 150.861C296.824 153.949 306.664 159.565 314.255 161.25C322.127 163.216 321.283 164.058 325.782 164.339C330.561 164.62 331.967 162.373 335.34 161.25C338.714 160.127 343.212 158.723 347.43 155.353C351.647 151.984 355.301 145.245 354.458 139.348C353.615 133.451 358.113 131.205 358.113 127.555C358.113 124.466 358.394 122.5 358.113 119.692ZM321.565 141.314C320.159 141.314 319.034 139.91 319.034 137.944C319.034 135.979 320.159 134.575 321.565 134.575C322.97 134.575 324.095 135.979 324.095 137.944C324.095 139.91 322.97 141.314 321.565 141.314Z" fill="#3B4B75"/>
<path d="M319.596 129.801C317.628 129.801 315.942 129.239 314.817 127.836C312.849 125.87 313.13 123.343 313.13 123.062C313.13 121.939 313.973 121.377 315.098 121.377C315.941 121.377 316.785 122.22 316.785 123.062C316.785 123.062 316.785 124.466 317.628 125.308C318.191 125.87 319.034 126.151 320.159 126.151C324.095 126.151 326.063 124.747 326.063 124.466C326.063 123.624 326.906 122.781 327.749 122.781C328.874 122.781 329.436 123.624 329.717 124.466C329.717 125.028 329.717 126.151 328.593 126.993C326.625 128.959 323.532 129.801 319.596 129.801C319.877 129.801 319.596 129.801 319.596 129.801Z" fill="#3B4B75"/>
<path d="M390.444 281.15C386.789 280.869 383.134 280.588 379.479 280.307C374.981 280.027 370.483 279.746 365.703 279.465C365.703 279.465 376.105 267.391 373.013 242.119C369.92 216.848 363.173 213.197 361.486 213.197C359.799 213.197 358.394 213.197 358.394 213.197C358.394 213.197 358.675 208.424 363.454 207.862C368.233 207.301 370.201 208.985 374.419 207.862C378.636 206.739 392.131 206.458 399.721 235.38C407.031 264.021 390.444 281.15 390.444 281.15Z" fill="white"/>
<path d="M390.444 282.835C386.508 282.554 382.853 282.273 379.48 281.992C374.981 281.712 370.483 281.431 365.985 281.15C365.422 281.15 364.86 280.588 364.579 280.027C364.298 279.465 364.298 278.623 364.86 278.061C364.86 278.061 374.7 265.987 371.608 241.838C368.515 216.286 362.049 214.601 361.768 214.601C359.8 214.601 358.394 214.601 358.394 214.601C357.55 214.601 356.707 213.759 356.707 212.636C356.988 210.389 358.394 206.177 363.454 205.616C365.985 205.335 367.953 205.616 369.358 205.616C371.045 205.897 372.17 205.897 374.138 205.616C378.636 204.493 393.256 203.37 401.409 234.257C408.999 263.741 392.693 281.15 391.85 281.992C391.288 282.835 391.006 282.835 390.444 282.835ZM369.077 277.78C372.451 278.061 376.106 278.342 379.48 278.342C382.853 278.623 386.227 278.904 389.601 279.184C392.412 275.815 404.22 260.09 397.754 235.38C390.163 207.02 377.23 208.424 374.7 209.266C372.17 209.828 370.483 209.547 368.515 209.266C367.109 208.985 365.704 208.985 363.454 209.266C361.768 209.547 360.924 210.389 360.362 211.232C360.643 211.232 360.924 211.232 360.924 211.232C362.049 211.232 370.764 211.513 374.419 241.558C377.23 260.933 371.889 272.726 369.077 277.78Z" fill="#3B4B75"/>
<path d="M280.236 280.589C276.581 280.869 272.927 281.15 269.272 281.431C265.336 281.712 261.119 282.273 257.183 282.554C257.183 282.554 243.969 269.637 243.126 244.647C242.001 219.656 252.122 205.054 270.959 201.685C270.959 201.685 275.176 200.562 277.706 201.685C280.517 202.808 283.61 203.931 286.703 204.212C289.795 204.493 289.233 208.424 289.233 208.424C289.233 208.424 266.179 232.572 279.112 277.219L280.236 280.589Z" fill="white"/>
<path d="M257.183 284.519C256.621 284.519 256.339 284.239 256.058 283.958C255.496 283.396 242.564 270.199 241.439 244.927C240.314 219.375 250.436 203.931 270.678 200C270.959 200 275.457 198.596 278.55 200C281.642 201.404 284.454 202.246 286.984 202.527C288.39 202.808 289.233 203.37 290.077 204.212C291.482 205.897 291.201 208.424 290.92 208.705C290.92 208.985 290.639 209.266 290.358 209.547C290.077 209.828 268.147 233.415 280.799 276.376L281.923 280.027C282.205 280.588 281.923 281.15 281.642 281.431C281.361 281.992 280.799 282.273 280.237 282.273C276.582 282.554 272.927 282.835 269.272 283.115C265.336 283.677 261.4 283.958 257.183 284.519ZM274.895 202.808C273.489 202.808 272.083 203.089 271.521 203.37C252.966 207.02 243.969 220.779 245.094 244.646C245.937 265.706 255.777 278.061 258.026 280.869C261.681 280.588 265.617 280.027 269.272 279.746C272.083 279.465 275.176 279.184 277.987 278.904L277.425 277.5C265.055 235.38 284.173 211.232 287.546 207.581C287.546 207.02 287.546 206.458 287.265 206.178C287.265 206.178 286.984 205.897 286.703 205.897C283.891 205.616 280.518 204.774 277.144 203.089C276.301 203.089 275.738 202.808 274.895 202.808Z" fill="#3B4B75"/>
<path d="M192.52 228.36C192.52 228.36 192.801 230.045 192.52 233.415C192.239 236.784 193.926 247.735 196.175 250.262C198.424 252.79 199.548 256.721 201.516 253.632C203.484 250.262 201.516 235.661 201.516 228.36C201.516 221.06 213.606 211.793 214.73 211.232C215.855 210.67 225.695 211.232 228.225 211.232C230.755 211.232 234.129 207.862 228.225 205.335C222.321 202.808 216.979 204.212 212.481 203.931C207.983 203.65 200.673 202.246 203.766 192.699C205.171 188.487 205.734 182.31 206.015 176.413C206.577 168.832 206.296 162.093 206.296 162.093" fill="white"/>
<path d="M200.111 256.44C198.424 256.44 197.3 255.036 196.456 253.351C195.894 252.79 195.613 251.947 195.051 251.386C192.239 248.297 190.552 236.784 191.115 233.134C191.396 230.045 191.115 228.641 191.115 228.641C190.833 227.799 191.396 226.676 192.52 226.676C193.364 226.395 194.488 226.956 194.769 228.08C194.769 228.36 195.332 230.045 194.769 233.695C194.488 237.346 196.175 247.454 197.862 249.139C198.705 249.982 199.268 250.824 199.83 251.666C200.111 251.947 200.392 252.509 200.673 252.79C201.798 251.105 201.236 242.681 200.955 237.065C200.673 233.695 200.392 230.888 200.392 228.36C200.392 219.656 214.449 209.828 214.449 209.547C215.293 208.985 217.261 208.985 225.414 209.266C226.82 209.266 228.225 209.266 228.788 209.266C229.631 209.266 230.193 208.705 230.474 208.424C230.474 208.143 230.193 207.581 228.225 206.739C224.57 205.054 220.916 205.335 217.542 205.335C215.855 205.335 214.449 205.335 213.044 205.335C209.951 205.054 205.734 204.493 203.485 201.123C201.798 198.877 201.798 195.507 202.923 191.857C204.047 188.487 204.891 183.152 205.172 176.132C205.734 168.551 205.453 161.812 205.453 161.812C205.453 160.969 206.296 160.127 207.14 160.127C208.264 160.127 208.827 160.969 208.827 161.812C208.827 161.812 208.826 168.832 208.545 176.413C207.983 183.714 207.14 189.33 206.015 192.98C205.172 195.788 205.172 198.034 206.015 199.438C207.421 201.404 210.794 201.966 213.044 202.246C214.168 202.246 215.574 202.246 216.98 202.246C220.634 202.246 224.852 201.966 229.35 203.931C233.848 205.897 233.848 208.424 233.567 209.547C233.005 211.793 230.756 213.197 228.506 213.197C227.663 213.197 226.538 213.197 224.852 213.197C222.321 213.197 216.698 212.917 215.574 213.197C213.606 214.321 203.485 223.025 203.485 228.641C203.485 230.888 203.766 233.976 203.766 237.065C204.328 246.05 204.609 252.228 203.204 254.755C202.641 255.036 201.798 256.44 200.111 256.44Z" fill="#3B4B75"/>
<path d="M441.893 253.07C441.612 253.07 441.612 253.07 441.33 253.07C439.081 252.509 438.519 249.42 438.238 246.331C437.957 242.119 435.426 235.38 431.772 231.168C431.209 230.607 430.647 229.764 429.804 228.922C425.868 223.587 419.682 215.725 406.469 214.321C391.287 212.636 391.287 212.355 391.287 210.67C391.287 210.109 391.849 209.547 392.412 208.985C393.536 208.143 400.846 202.808 407.593 201.966C412.092 201.404 415.746 198.315 419.401 195.226C421.088 193.822 422.494 192.699 424.181 191.295C426.149 189.891 428.117 187.083 430.366 184.275C434.302 178.94 438.8 173.044 445.266 171.359C446.11 171.078 447.234 171.64 447.516 172.763C447.797 173.605 447.234 174.728 446.11 175.009C440.768 176.413 436.832 181.748 433.177 186.522C430.928 189.611 428.679 192.699 426.149 194.384C424.462 195.507 423.056 196.911 421.369 198.034C417.433 201.404 413.216 204.773 407.874 205.616C404.22 206.177 400.284 208.143 397.472 209.828C399.44 210.109 402.252 210.389 406.75 210.951C421.369 212.636 428.398 221.621 432.615 226.956C433.177 227.799 433.74 228.641 434.302 229.203C438.519 234.257 441.33 241.558 441.612 246.331C441.612 247.735 441.893 248.578 442.174 249.139C442.455 248.858 442.736 248.297 443.017 247.735C445.266 243.804 442.736 235.942 441.612 233.134C441.33 232.291 441.612 231.168 442.455 230.887C443.298 230.607 444.423 230.888 444.704 231.73C445.266 232.853 449.483 243.242 445.829 249.42C445.266 251.105 443.861 253.07 441.893 253.07Z" fill="#3B4B75"/>
<path d="M443.298 232.572C443.298 232.572 447.797 243.243 444.704 248.578C441.33 254.194 440.487 250.543 439.925 246.331C439.644 242.119 437.113 234.819 433.177 230.045C428.96 225.272 422.775 214.321 406.75 212.636C390.444 210.951 393.255 210.67 393.255 210.67C393.255 210.67 400.846 204.774 407.593 203.65C414.341 202.527 415.746 199.438 421.65 195.507" fill="white"/>
<path d="M441.893 253.07C441.611 253.07 441.612 253.07 441.33 253.07C439.081 252.509 438.519 249.42 438.238 246.331C437.957 242.119 435.426 235.38 431.772 231.168C431.209 230.607 430.647 229.764 429.804 228.922C425.868 223.587 419.682 215.725 406.469 214.321C391.287 212.636 391.287 212.355 391.287 210.67C391.287 210.109 391.849 209.547 392.412 208.986C393.536 208.143 400.846 202.808 407.593 201.966C411.811 201.404 413.778 199.719 416.59 197.473C417.714 196.35 419.12 195.227 421.088 194.103C421.932 193.542 423.056 193.823 423.618 194.665C424.181 195.507 423.9 196.631 423.056 197.192C421.369 198.315 419.964 199.438 418.839 200.562C415.747 203.089 413.497 205.054 408.156 205.897C404.501 206.458 400.565 208.424 397.753 210.109C399.721 210.39 402.533 210.67 407.031 211.232C421.65 212.917 428.679 221.902 432.896 227.237C433.458 228.08 434.021 228.922 434.583 229.484C438.8 234.538 441.611 241.839 441.893 246.612C441.893 248.016 442.174 248.859 442.455 249.42C442.736 249.139 443.017 248.578 443.298 248.016C445.547 244.085 443.017 236.223 441.893 233.415C441.611 232.572 441.893 231.449 442.736 231.168C443.58 230.888 444.704 231.168 444.985 232.011C445.548 233.134 449.765 243.523 446.11 249.701C445.266 251.105 443.861 253.07 441.893 253.07Z" fill="#3B4B75"/>
</svg>
