<svg width="26" height="18" viewBox="0 0 26 18" fill="none" xmlns="http://www.w3.org/2000/svg">
<path d="M21.6007 0.41297C21.0683 -0.119454 20.2082 -0.119454 19.6758 0.41297L13 7.07509L6.32423 0.399317C5.79181 -0.133106 4.93174 -0.133106 4.39932 0.399317C3.86689 0.931741 3.86689 1.79181 4.39932 2.32423L11.0751 9L4.39932 15.6758C3.86689 16.2082 3.86689 17.0683 4.39932 17.6007C4.93174 18.1331 5.79181 18.1331 6.32423 17.6007L13 10.9249L19.6758 17.6007C20.2082 18.1331 21.0683 18.1331 21.6007 17.6007C22.1331 17.0683 22.1331 16.2082 21.6007 15.6758L14.9249 9L21.6007 2.32423C22.1195 1.80546 22.1195 0.931741 21.6007 0.41297Z" fill="white"/>
</svg>
