<svg width="51" height="72" viewBox="0 0 51 72" fill="none" xmlns="http://www.w3.org/2000/svg">
<path d="M25.5 1.65259C12.5233 1.65259 2 13.0079 2 27.013C2 41.0181 25.5 69.1005 25.5 69.1005C25.5 69.1005 49 41.0181 49 27.013C49 13.0079 38.4767 1.65259 25.5 1.65259Z" fill="#69A278" stroke="white" stroke-width="3"/>
<path d="M11 40.4862H28L23.8764 33.3367C23.825 33.2481 23.794 33.143 23.7867 33.033C23.7793 32.9231 23.7961 32.8127 23.835 32.7143C23.8731 32.6129 23.9321 32.5267 24.0055 32.4651C24.079 32.4035 24.1642 32.3687 24.252 32.3645H26.5956L22.6489 26.5914C22.5901 26.5056 22.5519 26.3997 22.5391 26.2867C22.5262 26.1736 22.5392 26.0582 22.5764 25.9545C22.6137 25.8507 22.6736 25.763 22.749 25.7019C22.8243 25.6409 22.9119 25.6092 23.001 25.6106H25.3892L21.9701 19.9123C21.9169 19.8212 21.8843 19.7133 21.8757 19.6001C21.8672 19.4869 21.883 19.3729 21.9216 19.2705C21.9604 19.1709 22.0203 19.0873 22.0944 19.0293C22.1685 18.9712 22.2538 18.9411 22.3407 18.9423H23.753L19.3168 10.85L14.8811 18.9423H16.3283C16.416 18.9437 16.5018 18.9765 16.5758 19.0369C16.6499 19.0973 16.7093 19.1829 16.7475 19.2842C16.7859 19.3824 16.8017 19.4926 16.7928 19.6018C16.7839 19.711 16.7508 19.8147 16.6974 19.9006L13.2497 25.6106H15.7896C15.8791 25.6103 15.9668 25.6431 16.0422 25.705C16.1176 25.7669 16.1775 25.8554 16.2146 25.9598C16.2517 26.0606 16.2645 26.1732 16.2514 26.2834C16.2384 26.3935 16.2 26.4962 16.1413 26.5783L12.1948 32.3645H14.886C14.9744 32.3688 15.0602 32.4041 15.134 32.4666C15.2078 32.5291 15.2668 32.6164 15.3046 32.7189C15.3432 32.819 15.3592 32.9309 15.3508 33.042C15.3424 33.1531 15.31 33.259 15.2572 33.3477L11 40.4862Z" fill="white"/>
<path d="M20 43.552H19V47.6398H20V43.552Z" fill="white"/>
<path d="M34.0052 23.1133C32.8547 23.1166 31.7289 23.6034 30.7614 24.5161C29.7938 25.4288 29.025 26.729 28.5461 28.2628C28.0672 29.7965 27.8982 31.4994 28.0592 33.1696C28.2202 34.8399 28.7045 36.4074 29.4546 37.6865C30.2717 39.084 31.3707 40.0644 32.5927 40.4862V37.5689C32.5927 37.2199 32.8118 36.8644 33.0498 36.8644H35.0968C35.3348 36.8644 35.4861 37.2199 35.4861 37.5689V40.4373C36.6801 39.9751 37.7509 38.9944 38.5581 37.6241C39.3038 36.3474 39.7843 34.784 39.9426 33.1192C40.1009 31.4543 39.9303 29.7579 39.4512 28.2308C38.972 26.7037 38.2043 25.41 37.2391 24.503C36.2738 23.596 35.1515 23.1137 34.005 23.1133H34.0052Z" fill="white"/>
<path d="M36 38.4424H34V47.6398H36V38.4424Z" fill="white"/>
</svg>
