<svg width="29" height="24" viewBox="0 0 29 24" fill="none" xmlns="http://www.w3.org/2000/svg">
<path d="M9.70425 8.04492H17.7393" stroke="black" stroke-linecap="square"/>
<path fill-rule="evenodd" clip-rule="evenodd" d="M9.717 7.99492C9.717 6.79319 8.73555 5.81876 7.52517 5.81876C6.31479 5.81876 5.33334 6.79319 5.33334 7.99492C5.33334 9.19664 6.31479 10.1711 7.52517 10.1711C8.73555 10.1711 9.717 9.19664 9.717 7.99492Z" stroke="black" stroke-linecap="square"/>
<path d="M14.2957 16.0556H6.26072" stroke="black" stroke-linecap="square"/>
<path fill-rule="evenodd" clip-rule="evenodd" d="M14.283 16.0052C14.283 14.8034 15.2645 13.829 16.4748 13.829C17.6852 13.829 18.6667 14.8034 18.6667 16.0052C18.6667 17.2069 17.6852 18.1813 16.4748 18.1813C15.2645 18.1813 14.283 17.2069 14.283 16.0052Z" stroke="black" stroke-linecap="square"/>
<circle cx="24.5" cy="4.5" r="2.5" fill="#FF5534"/>
</svg>
