<svg width="20" height="20" viewBox="0 0 20 20" fill="none" xmlns="http://www.w3.org/2000/svg">
<path d="M9.54567 2.31943C9.58262 2.22495 9.64555 2.14413 9.72646 2.08725C9.80736 2.03037 9.90258 2 10 2C10.0974 2 10.1926 2.03037 10.2735 2.08725C10.3544 2.14413 10.4174 2.22495 10.4543 2.31943L12.3109 6.9997C12.3457 7.08727 12.4028 7.1631 12.4761 7.21884C12.5493 7.27458 12.6357 7.30807 12.726 7.31562L17.5471 7.72037C17.983 7.757 18.1595 8.3275 17.8275 8.62511L14.1545 11.9236C14.0858 11.9851 14.0347 12.0652 14.0066 12.1552C13.9786 12.2452 13.9747 12.3415 13.9954 12.4336L15.1182 17.3648C15.1407 17.4637 15.1348 17.5674 15.1012 17.6629C15.0675 17.7583 15.0076 17.8411 14.9291 17.9009C14.8506 17.9606 14.7569 17.9947 14.6599 17.9987C14.563 18.0027 14.467 17.9765 14.3842 17.9234L10.256 15.2815C10.1789 15.2322 10.0903 15.206 10 15.206C9.90967 15.206 9.82108 15.2322 9.744 15.2815L5.61575 17.9243C5.53297 17.9774 5.43704 18.0036 5.34006 17.9996C5.24308 17.9956 5.14941 17.9616 5.07088 17.9018C4.99235 17.842 4.93248 17.7592 4.89883 17.6638C4.86519 17.5684 4.85927 17.4646 4.88184 17.3657L6.00455 12.4336C6.02537 12.3415 6.02154 12.2451 5.99349 12.1551C5.96543 12.0652 5.91424 11.985 5.84553 11.9236L2.17248 8.62511C2.09852 8.55903 2.04493 8.47142 2.0185 8.37339C1.99207 8.27536 1.994 8.17132 2.02403 8.07444C2.05406 7.97756 2.11085 7.8922 2.1872 7.82917C2.26356 7.76614 2.35604 7.72827 2.45294 7.72037L7.27404 7.31562C7.36425 7.30807 7.45072 7.27458 7.52394 7.21884C7.59716 7.1631 7.65429 7.08727 7.68905 6.9997L9.54567 2.31943Z" fill="#FA7E7F"/>
</svg>
