<svg width="18" height="18" viewBox="0 0 18 18" fill="none" xmlns="http://www.w3.org/2000/svg">
<g clip-path="url(#clip0_630_4216)">
<path d="M6.80098 12.2605L10.476 15.9355L11.0062 15.4053C11.7392 14.6698 12.2682 13.7561 12.541 12.7542C12.8139 11.7523 12.8213 10.6967 12.5625 9.69105L12.378 8.94105L13.9425 7.37655L14.1052 7.5393C14.4842 7.92772 14.9876 8.17058 15.5275 8.22542C16.0674 8.28026 16.6094 8.14359 17.0587 7.8393C17.3251 7.64952 17.5468 7.40397 17.7086 7.11974C17.8703 6.83551 17.9682 6.51943 17.9953 6.19352C18.0225 5.86762 17.9782 5.53971 17.8657 5.23265C17.7531 4.92559 17.575 4.64675 17.3437 4.41555L13.65 0.715796C13.271 0.327372 12.7676 0.0845096 12.2277 0.0296706C11.6878 -0.0251684 11.1458 0.111505 10.6965 0.415796C10.4301 0.605571 10.2084 0.851125 10.0466 1.13536C9.88486 1.41959 9.78701 1.73566 9.75989 2.06157C9.73276 2.38748 9.777 2.71538 9.88953 3.02244C10.0021 3.32951 10.1802 3.60835 10.4115 3.83955L10.6312 4.0593L9.06373 5.6253L8.32498 5.4438C7.31764 5.18296 6.25972 5.18909 5.25547 5.46159C4.25122 5.73409 3.3353 6.26355 2.59798 6.9978L2.06773 7.52805L5.74273 11.1993L0.219727 16.72L1.28023 17.7805L6.80098 12.2605ZM7.95523 6.9003L9.53023 7.2858L12.7552 4.0608L11.4697 2.78055C11.3921 2.70307 11.3324 2.60951 11.2948 2.50645C11.2572 2.40339 11.2427 2.29335 11.2523 2.18407C11.2619 2.0748 11.2953 1.96896 11.3503 1.87401C11.4052 1.77906 11.4803 1.69732 11.5702 1.63455C11.7303 1.53766 11.9188 1.49894 12.1041 1.5249C12.2893 1.55086 12.46 1.63991 12.5872 1.77705L16.2802 5.47005C16.3579 5.54752 16.4176 5.64108 16.4552 5.74414C16.4927 5.8472 16.5072 5.95725 16.4977 6.06652C16.4881 6.17579 16.4546 6.28163 16.3997 6.37658C16.3448 6.47153 16.2697 6.55327 16.1797 6.61605C16.0197 6.71293 15.8311 6.75165 15.6459 6.7257C15.4606 6.69974 15.29 6.61068 15.1627 6.47355L13.9395 5.2503L10.7145 8.4753L11.103 10.0585C11.2666 10.6888 11.291 11.3471 11.1744 11.9877C11.0579 12.6283 10.8031 13.2359 10.428 13.768L4.23448 7.5753C4.76824 7.19892 5.37769 6.94353 6.02032 6.82694C6.66295 6.71036 7.32327 6.73539 7.95523 6.9003Z" fill="#848282"/>
</g>
<defs>
<clipPath id="clip0_630_4216">
<rect width="18" height="18" fill="white"/>
</clipPath>
</defs>
</svg>
