<svg width="20" height="20" viewBox="0 0 20 20" fill="none" xmlns="http://www.w3.org/2000/svg">
<g clip-path="url(#clip0_949_4984)">
<path d="M18.3333 13.3329V17.4995C18.3333 17.7206 18.2455 17.9325 18.0893 18.0888C17.933 18.2451 17.721 18.3329 17.5 18.3329H2.5C2.27899 18.3329 2.06702 18.2451 1.91074 18.0888C1.75446 17.9325 1.66667 17.7206 1.66667 17.4995V13.3329H0V17.4995C0 18.1626 0.263392 18.7985 0.732233 19.2673C1.20107 19.7361 1.83696 19.9995 2.5 19.9995H17.5C18.163 19.9995 18.7989 19.7361 19.2678 19.2673C19.7366 18.7985 20 18.1626 20 17.4995V13.3329H18.3333Z" fill="#848282"/>
<path d="M9.97264 -0.000234663C9.64447 -0.00113933 9.31934 0.0627295 9.0159 0.187711C8.71245 0.312693 8.43665 0.496331 8.20431 0.728099L4.93848 3.99393L6.11681 5.17227L9.14514 2.14477L9.16681 15.8331H10.8335L10.8118 2.15643L13.8276 5.17227L15.006 3.99393L11.7401 0.728099C11.508 0.496356 11.2323 0.312728 10.929 0.187744C10.6257 0.0627599 10.3007 -0.00112068 9.97264 -0.000234663Z" fill="#848282"/>
</g>
<defs>
<clipPath id="clip0_949_4984">
<rect width="20" height="20" fill="white"/>
</clipPath>
</defs>
</svg>
