<svg width="64" height="64" viewBox="0 0 64 64" fill="none" xmlns="http://www.w3.org/2000/svg">
<rect width="64" height="64" rx="32" fill="#F5F5F5"/>
<path d="M31.6667 20.3333H25.4C23.1598 20.3333 22.0397 20.3333 21.184 20.7693C20.4314 21.1528 19.8195 21.7647 19.436 22.5174C19 23.373 19 24.4931 19 26.7333V37.9333C19 40.1735 19 41.2937 19.436 42.1493C19.8195 42.9019 20.4314 43.5139 21.184 43.8974C22.0397 44.3333 23.1598 44.3333 25.4 44.3333H37.6667C38.9066 44.3333 39.5266 44.3333 40.0353 44.197C41.4156 43.8272 42.4938 42.749 42.8637 41.3686C43 40.8599 43 40.24 43 39M40.3333 27V19M36.3333 23H44.3333M29 27.6667C29 29.1394 27.8061 30.3333 26.3333 30.3333C24.8606 30.3333 23.6667 29.1394 23.6667 27.6667C23.6667 26.1939 24.8606 25 26.3333 25C27.8061 25 29 26.1939 29 27.6667ZM34.9867 32.2242L23.7082 42.4774C23.0738 43.0541 22.7566 43.3425 22.7286 43.5923C22.7043 43.8088 22.7873 44.0235 22.9509 44.1674C23.1397 44.3333 23.5684 44.3333 24.4257 44.3333H36.9413C38.8602 44.3333 39.8196 44.3333 40.5732 44.011C41.5193 43.6063 42.2729 42.8526 42.6776 41.9066C43 41.153 43 40.1935 43 38.2746C43 37.629 43 37.3062 42.9294 37.0055C42.8407 36.6277 42.6706 36.2738 42.431 35.9685C42.2403 35.7256 41.9883 35.5239 41.4841 35.1206L37.7544 32.1369C37.2499 31.7332 36.9976 31.5314 36.7197 31.4601C36.4748 31.3974 36.2172 31.4055 35.9767 31.4836C35.7039 31.5722 35.4648 31.7895 34.9867 32.2242Z" stroke="#535862" stroke-width="2" stroke-linecap="round" stroke-linejoin="round"/>
</svg>
