<svg width="17" height="22" viewBox="0 0 17 22" fill="none" xmlns="http://www.w3.org/2000/svg">
<path fill-rule="evenodd" clip-rule="evenodd" d="M2.91667 2.11115C2.68092 2.11115 2.45483 2.2048 2.28813 2.3715C2.12143 2.5382 2.02778 2.76429 2.02778 3.00004V19.174L7.77889 15.5796C8.06713 15.3995 8.43287 15.3995 8.72111 15.5796L14.4722 19.174V3.00004C14.4722 2.76429 14.3786 2.5382 14.2119 2.3715C14.0452 2.2048 13.8191 2.11115 13.5833 2.11115H2.91667ZM1.03105 1.11442C1.53115 0.614326 2.20942 0.333374 2.91667 0.333374H13.5833C14.2906 0.333374 14.9689 0.614326 15.469 1.11442C15.969 1.61452 16.25 2.2928 16.25 3.00004V20.7778C16.25 21.101 16.0746 21.3986 15.792 21.5553C15.5094 21.7119 15.164 21.7029 14.89 21.5316L8.25 17.3816L1.61 21.5316C1.33598 21.7029 0.99061 21.7119 0.707984 21.5553C0.425357 21.3986 0.25 21.101 0.25 20.7778V3.00004C0.25 2.2928 0.530951 1.61452 1.03105 1.11442Z" fill="#848282"/>
</svg>
