<svg width="18" height="18" viewBox="0 0 18 18" fill="none" xmlns="http://www.w3.org/2000/svg">
<path fill-rule="evenodd" clip-rule="evenodd" d="M4.3463 1.83796C4.16887 1.83796 3.99872 1.90844 3.87326 2.0339C3.7478 2.15936 3.67732 2.32952 3.67732 2.50694V14.6796L8.00563 11.9744C8.22256 11.8388 8.49782 11.8388 8.71475 11.9744L13.0431 14.6796V2.50694C13.0431 2.32952 12.9726 2.15936 12.8471 2.0339C12.7217 1.90844 12.5515 1.83796 12.3741 1.83796H4.3463ZM2.92718 1.08782C3.30355 0.711445 3.81403 0.5 4.3463 0.5H12.3741C12.9064 0.5 13.4168 0.711445 13.7932 1.08782C14.1696 1.4642 14.381 1.97467 14.381 2.50694V15.8866C14.381 16.1298 14.249 16.3538 14.0363 16.4717C13.8236 16.5896 13.5637 16.5828 13.3575 16.4539L8.36019 13.3306L3.3629 16.4539C3.15667 16.5828 2.89674 16.5896 2.68404 16.4717C2.47133 16.3538 2.33936 16.1298 2.33936 15.8866V2.50694C2.33936 1.97467 2.5508 1.4642 2.92718 1.08782Z" fill="#707070"/>
</svg>
