<svg width="24" height="25" viewBox="0 0 24 25" fill="none" xmlns="http://www.w3.org/2000/svg">
<path fill-rule="evenodd" clip-rule="evenodd" d="M7.19382 5.75205C7.59577 5.02153 8.03303 4.53318 8.68188 4.27492C9.87089 3.80214 14.1293 3.80214 15.3174 4.27502C15.9659 4.53313 16.4033 5.02139 16.8055 5.75177L17.2578 6.61892C17.2681 6.63611 17.2776 6.65121 17.2862 6.66422L17.3246 6.71672C17.5306 6.94122 17.8754 7.07685 18.103 7.07685C20.255 7.07685 22 8.82144 22 10.9728V16.7678C22 19.5121 19.7742 21.7378 17.03 21.7378H6.97C4.2251 21.7378 2 19.5124 2 16.7678V10.9728C2 8.82144 3.74498 7.07685 5.897 7.07685C6.12377 7.07685 6.46908 6.94103 6.67544 6.71672C6.67956 6.71223 6.68494 6.70554 6.69145 6.69669L6.74287 6.6178L7.19382 5.75205ZM15.4917 6.47543C15.2417 6.02159 15.0158 5.76944 14.7626 5.66868L14.6433 5.62902C13.6142 5.33813 10.0344 5.35135 9.23635 5.66868C8.98334 5.76939 8.75768 6.0214 8.50802 6.47515L8.12316 7.21925L8.02843 7.39068C7.94936 7.52221 7.87026 7.63324 7.77995 7.73164C7.27349 8.28214 6.52425 8.57685 5.897 8.57685L5.7329 8.58238C4.48575 8.66671 3.5 9.70507 3.5 10.9728V16.7678C3.5 18.684 5.05359 20.2378 6.97 20.2378H17.03C18.9458 20.2378 20.5 18.6836 20.5 16.7678V10.9728C20.5 9.64994 19.4267 8.57685 18.103 8.57685L17.9289 8.56957C17.3403 8.52114 16.6793 8.23201 16.2194 7.73098C16.1303 7.63388 16.0517 7.52364 15.9731 7.39322C15.9618 7.37451 15.9478 7.34988 15.9317 7.32074L15.8156 7.10299L15.4917 6.47543Z" fill="#242424"/>
<path fill-rule="evenodd" clip-rule="evenodd" d="M8.0708 14.0486C8.0708 11.8784 9.82959 10.1196 11.9998 10.1196C14.17 10.1196 15.9288 11.8784 15.9288 14.0486C15.9288 16.2188 14.17 17.9776 11.9998 17.9776C9.82959 17.9776 8.0708 16.2188 8.0708 14.0486ZM14.4288 14.0486C14.4288 12.7068 13.3416 11.6196 11.9998 11.6196C10.658 11.6196 9.5708 12.7068 9.5708 14.0486C9.5708 15.3904 10.658 16.4776 11.9998 16.4776C13.3416 16.4776 14.4288 15.3904 14.4288 14.0486Z" fill="#242424"/>
</svg>
