<svg width="18" height="18" viewBox="0 0 18 18" fill="none" xmlns="http://www.w3.org/2000/svg">
<g clip-path="url(#clip0_495_4893)">
<path d="M9.21436 8.99994C10.0549 8.99994 10.8766 8.75068 11.5755 8.28369C12.2744 7.81669 12.8192 7.15293 13.1408 6.37635C13.4625 5.59976 13.5467 4.74523 13.3827 3.92081C13.2187 3.09639 12.8139 2.33911 12.2196 1.74474C11.6252 1.15036 10.8679 0.745591 10.0435 0.581603C9.21907 0.417616 8.36454 0.50178 7.58795 0.823453C6.81137 1.14513 6.14761 1.68986 5.68061 2.38877C5.21361 3.08768 4.96436 3.90937 4.96436 4.74994C4.96548 5.87677 5.41361 6.95712 6.21039 7.7539C7.00718 8.55069 8.08753 8.99882 9.21436 8.99994ZM9.21436 1.91661C9.77474 1.91661 10.3225 2.08278 10.7885 2.39411C11.2544 2.70544 11.6176 3.14795 11.832 3.66567C12.0465 4.1834 12.1026 4.75308 11.9932 5.3027C11.8839 5.85231 11.6141 6.35716 11.2178 6.75341C10.8216 7.14966 10.3167 7.41951 9.76711 7.52883C9.2175 7.63816 8.64781 7.58205 8.13009 7.3676C7.61236 7.15315 7.16986 6.79 6.85853 6.32406C6.54719 5.85812 6.38102 5.31032 6.38102 4.74994C6.38102 3.99849 6.67953 3.27782 7.21089 2.74647C7.74224 2.21512 8.46291 1.91661 9.21436 1.91661Z" fill="#707070"/>
<path d="M9.21436 10.4171C7.52418 10.419 5.90376 11.0912 4.70862 12.2864C3.51348 13.4815 2.84123 15.1019 2.83936 16.7921C2.83936 16.98 2.91398 17.1601 3.04682 17.293C3.17966 17.4258 3.35983 17.5004 3.54769 17.5004C3.73555 17.5004 3.91572 17.4258 4.04856 17.293C4.18139 17.1601 4.25602 16.98 4.25602 16.7921C4.25602 15.4771 4.77842 14.2159 5.70828 13.286C6.63815 12.3562 7.89932 11.8338 9.21436 11.8338C10.5294 11.8338 11.7906 12.3562 12.7204 13.286C13.6503 14.2159 14.1727 15.4771 14.1727 16.7921C14.1727 16.98 14.2473 17.1601 14.3802 17.293C14.513 17.4258 14.6932 17.5004 14.881 17.5004C15.0689 17.5004 15.2491 17.4258 15.3819 17.293C15.5147 17.1601 15.5894 16.98 15.5894 16.7921C15.5875 15.1019 14.9152 13.4815 13.7201 12.2864C12.525 11.0912 10.9045 10.419 9.21436 10.4171Z" fill="#707070"/>
</g>
<defs>
<clipPath id="clip0_495_4893">
<rect width="17" height="17" fill="white" transform="translate(0.714355 0.5)"/>
</clipPath>
</defs>
</svg>
