<svg width="20" height="22" viewBox="0 0 20 22" fill="none" xmlns="http://www.w3.org/2000/svg">
<path d="M16.6668 15.5835V10.4979C16.6668 10.0081 16.6664 9.76302 16.6123 9.5351C16.5643 9.33312 16.4856 9.14198 16.379 8.96925C16.2587 8.77435 16.0915 8.61272 15.7563 8.29017L11.7563 4.44017C11.1342 3.84133 10.8231 3.54206 10.473 3.42817C10.1645 3.32782 9.83567 3.32782 9.52718 3.42817C9.17734 3.54197 8.8667 3.84096 8.24547 4.4389L4.24414 8.29017C3.90903 8.61272 3.74186 8.77435 3.62158 8.96925C3.51499 9.14198 3.43562 9.33312 3.38764 9.5351C3.3335 9.76302 3.3335 10.0081 3.3335 10.4979V15.5835C3.3335 16.4377 3.3335 16.8647 3.46036 17.2016C3.62952 17.6508 3.95376 18.0081 4.36214 18.1942C4.66843 18.3338 5.05671 18.3338 5.83328 18.3338C6.60985 18.3338 6.99856 18.3338 7.30485 18.1942C7.71323 18.0081 8.03739 17.6509 8.20654 17.2017C8.33341 16.8647 8.3335 16.4376 8.3335 15.5834V14.6667C8.3335 13.6542 9.07969 12.8334 10.0002 12.8334C10.9206 12.8334 11.6668 13.6542 11.6668 14.6667V15.5834C11.6668 16.4376 11.6668 16.8647 11.7937 17.2017C11.9629 17.6509 12.2871 18.0081 12.6955 18.1942C13.0018 18.3338 13.39 18.3338 14.1666 18.3338C14.9432 18.3338 15.3319 18.3338 15.6382 18.1942C16.0466 18.0081 16.3707 17.6508 16.5399 17.2016C16.6667 16.8647 16.6668 16.4377 16.6668 15.5835Z" stroke="#667085" stroke-width="1.3" stroke-linecap="round" stroke-linejoin="round"/>
</svg>
