<svg width="13" height="13" viewBox="0 0 13 13" fill="none" xmlns="http://www.w3.org/2000/svg">
<g clip-path="url(#clip0_944_4567)">
<path d="M8.19293 6.44168L7.15918 3.83334L6.28751 5.35834L5.41584 3.83334L4.38209 6.44251H4.08334V6.83459H5.64001V6.44251H5.40959L5.63376 5.79459L6.28751 6.86543L6.94126 5.79459L7.16543 6.44251H6.93501V6.83459H8.49793V6.44251L8.19293 6.44168Z" fill="#CD4343"/>
<path d="M3.21417 8.81708C2.46708 8.07 2 7.03667 2 5.89083C2 3.60542 3.85583 1.75 6.14083 1.75C6.68469 1.74973 7.22327 1.85665 7.72578 2.06464C8.2283 2.27264 8.68489 2.57765 9.06945 2.96221C9.45402 3.34678 9.75902 3.80337 9.96702 4.30588C10.175 4.80839 10.2819 5.34697 10.2817 5.89083C10.2831 6.43413 10.1772 6.97237 9.96989 7.47457C9.76259 7.97677 9.45803 8.43302 9.07375 8.81708L6.14083 11.75" stroke="#CD4343" stroke-width="0.9"/>
</g>
<defs>
<clipPath id="clip0_944_4567">
<rect width="12" height="12" fill="white" transform="translate(0.5 0.25)"/>
</clipPath>
</defs>
</svg>
